<?xml version="1.0" encoding="utf-8"?>
<!-- Generator: Adobe Illustrator 23.0.6, SVG Export Plug-In . SVG Version: 6.00 Build 0)  -->
<svg version="1.1" id="Layer_1" xmlns="http://www.w3.org/2000/svg" xmlns:xlink="http://www.w3.org/1999/xlink" x="0px" y="0px"
	 viewBox="0 0 306.01 141.83" style="enable-background:new 0 0 306.01 141.83;" xml:space="preserve">
<style type="text/css">
	.st0{fill:#6E6F71;}
	.st1{fill-rule:evenodd;clip-rule:evenodd;fill:#6E7071;}
	.st2{fill-rule:evenodd;clip-rule:evenodd;fill:#C4C6C7;}
	.st3{fill-rule:evenodd;clip-rule:evenodd;fill:#FFFFFF;}
	.st4{fill:#D1BF9D;}
	.st5{fill-rule:evenodd;clip-rule:evenodd;fill:#424242;}
	.st6{fill:#C6C7C8;}
	.st7{fill:#C6C7C8;stroke:#C6C7C8;stroke-width:5.0977;stroke-miterlimit:10;}
	.st8{fill:#FFFFFF;stroke:#FFFFFF;stroke-width:5.0977;stroke-miterlimit:10;}
	.st9{fill:#E1251B;}
	.st10{fill:#FFFFFF;}
	.st11{fill:#0099CD;}
	.st12{fill:#0093C9;}
	.st13{fill:#424242;}
</style>
<g>
	<path class="st0" d="M126.15,68.06h2.66v25.65h-2.66V68.06z"/>
	<path class="st0" d="M134.41,79.38c0-1.43,0-2.9-0.15-4.41h2.35v3.34h0.08c0.81-1.69,2.28-3.79,6.37-3.79
		c4.86,0,6.72,3.09,6.72,7.2v11.98h-2.43V82.32c0-3.53-1.31-5.81-4.67-5.81c-4.44,0-5.83,3.71-5.83,6.84v10.36h-2.43V79.38z"/>
	<path class="st0" d="M154.36,90.99c1.47,0.7,3.24,1.18,5.13,1.18c2.32,0,4.36-1.21,4.36-3.34c0-4.45-9.46-3.75-9.46-9.19
		c0-3.71,3.16-5.11,6.41-5.11c1.04,0,3.13,0.22,4.86,0.85l-0.23,2.02c-1.27-0.55-3.01-0.88-4.36-0.88c-2.51,0-4.25,0.74-4.25,3.12
		c0,3.49,9.69,3.05,9.69,9.19c0,3.97-3.9,5.33-6.87,5.33c-1.89,0-3.78-0.22-5.52-0.88L154.36,90.99z"/>
	<path class="st0" d="M185.86,89.3c0,1.43,0,2.9,0.15,4.41h-2.35v-3.34h-0.08c-0.81,1.69-2.28,3.79-6.37,3.79
		c-4.86,0-6.72-3.09-6.72-7.2V74.97h2.43v11.39c0,3.53,1.31,5.81,4.67,5.81c4.44,0,5.83-3.71,5.83-6.84V74.97h2.43V89.3z"/>
	<path class="st0" d="M191.57,79.16c0-2.06,0-2.83-0.15-4.19h2.43v3.6h0.08c0.89-2.1,2.55-4.04,5.06-4.04c0.58,0,1.27,0.11,1.7,0.22
		v2.43c-0.5-0.15-1.16-0.22-1.78-0.22c-3.86,0-4.9,4.12-4.9,7.5v9.26h-2.43V79.16z"/>
	<path class="st0" d="M215.73,90.7h-0.08c-1.08,2.24-3.82,3.45-6.25,3.45c-5.6,0-6.48-3.6-6.48-5.29c0-6.29,7.02-6.58,12.12-6.58
		h0.46v-0.96c0-3.2-1.2-4.81-4.48-4.81c-2.05,0-3.98,0.44-5.79,1.54v-2.24c1.5-0.7,4.05-1.29,5.79-1.29c4.86,0,6.91,2.1,6.91,6.98
		v8.27c0,1.51,0,2.65,0.19,3.93h-2.39V90.7z M215.49,84.27h-0.7c-4.21,0-9.22,0.4-9.22,4.52c0,2.46,1.85,3.38,4.09,3.38
		c5.71,0,5.83-4.74,5.83-6.76V84.27z"/>
	<path class="st0" d="M223.33,79.38c0-1.43,0-2.9-0.15-4.41h2.35v3.34h0.08c0.81-1.69,2.28-3.79,6.37-3.79
		c4.86,0,6.72,3.09,6.72,7.2v11.98h-2.43V82.32c0-3.53-1.31-5.81-4.67-5.81c-4.44,0-5.83,3.71-5.83,6.84v10.36h-2.43V79.38z"/>
	<path class="st0" d="M257.21,77.47c-1.31-0.55-2.89-0.96-4.21-0.96c-4.75,0-7.41,3.27-7.41,7.83c0,4.26,2.7,7.83,7.14,7.83
		c1.54,0,2.97-0.33,4.44-0.85l0.23,2.17c-1.66,0.55-3.2,0.66-5.06,0.66c-6.33,0-9.42-4.59-9.42-9.81c0-5.77,3.9-9.81,9.73-9.81
		c2.35,0,4.05,0.51,4.75,0.74L257.21,77.47z"/>
	<path class="st0" d="M275.12,93.12c-1.7,0.66-3.9,1.03-5.71,1.03c-6.52,0-8.95-4.19-8.95-9.81c0-5.73,3.32-9.81,8.3-9.81
		c5.56,0,7.83,4.26,7.83,9.3V85h-13.47c0,3.97,2.24,7.17,6.48,7.17c1.78,0,4.36-0.7,5.52-1.4V93.12z M273.92,83.02
		c0-3.27-1.39-6.51-5.02-6.51c-3.59,0-5.79,3.42-5.79,6.51H273.92z"/>
</g>
<g>
	<g>
		<g>
			<rect x="20.33" y="28.46" class="st1" width="82.32" height="69.24"/>
		</g>
	</g>
	<g>
		<g>
			<g>
				<rect x="18.37" y="30.91" class="st2" width="82.32" height="69.24"/>
			</g>
		</g>
	</g>
	<g>
		<g>
			<rect x="21.11" y="29.36" class="st3" width="80.76" height="67.45"/>
		</g>
	</g>
	<path class="st4" d="M99.15,37.36v-0.11l-75.21-0.02l0.02,56.23h0.1v0.11h75.09v-0.11h0.1v-56.1H99.15z M24.78,42.73V38.2h9.82
		v4.53H24.78z M24.78,52.71v-9.02h9.82v9.02H24.78z M24.78,62.68v-9.02h9.82v9.02H24.78z M24.78,72.66v-9.02h9.82v9.02H24.78z
		 M24.78,82.63v-9.02h9.82v9.02H24.78z M24.78,92.61v-9.02h9.82v9.02H24.78z M35.42,42.73V38.2h9.82v4.53H35.42z M35.42,52.71v-9.02
		h9.82v9.02H35.42z M35.42,62.68v-9.02h9.82v9.02H35.42z M35.42,72.66v-9.02h9.82v9.02H35.42z M35.42,82.63v-9.02h9.82v9.02H35.42z
		 M35.42,92.61v-9.02h9.82v9.02H35.42z M46.06,42.73V38.2h9.82v4.53H46.06z M46.06,52.71v-9.02h9.82v9.02H46.06z M46.06,62.68v-9.02
		h9.82v9.02H46.06z M46.06,72.66v-9.02h9.82v9.02H46.06z M46.06,82.63v-9.02h9.82v9.02H46.06z M46.06,92.61v-9.02h9.82v9.02H46.06z
		 M56.7,42.73V38.2h9.82v4.53H56.7z M56.7,52.71v-9.02h9.82v9.02H56.7z M56.7,62.68v-9.02h9.82v9.02H56.7z M56.7,72.66v-9.02h9.82
		v9.02H56.7z M56.7,82.63v-9.02h9.82v9.02H56.7z M56.7,92.61v-9.02h9.82v9.02H56.7z M67.34,42.73V38.2h9.82v4.53H67.34z
		 M67.34,52.71v-9.02h9.82v9.02H67.34z M67.34,62.68v-9.02h9.82v9.02H67.34z M67.34,72.66v-9.02h9.82v9.02H67.34z M67.34,82.63
		v-9.02h9.82v9.02H67.34z M67.34,92.61v-9.02h9.82v9.02H67.34z M77.98,42.73V38.2h9.82v4.53H77.98z M77.98,52.71v-9.02h9.82v9.02
		H77.98z M77.98,62.68v-9.02h9.82v9.02H77.98z M77.98,72.66v-9.02h9.82v9.02H77.98z M77.98,82.63v-9.02h9.82v9.02H77.98z
		 M77.98,92.61v-9.02h9.82v9.02H77.98z M88.62,42.73V38.2h9.82v4.53H88.62z M88.62,52.71v-9.02h9.82v9.02H88.62z M88.62,62.68v-9.02
		h9.82v9.02H88.62z M88.62,72.66v-9.02h9.82v9.02H88.62z M88.62,82.63v-9.02h9.82v9.02H88.62z M88.62,92.61v-9.02h9.82v9.02H88.62z"
		/>
	<g>
		<g>
			<path class="st5" d="M79.98,31.25h2.13c0.41,0,0.75,0.45,0.75,1v0c0,0.55-0.34,1-0.75,1h-2.13c-0.41,0-0.75-0.45-0.75-1v0
				C79.23,31.7,79.57,31.25,79.98,31.25L79.98,31.25z M96.4,31.3h2.13c0.41,0,0.75,0.45,0.75,1v0c0,0.55-0.34,1-0.75,1H96.4
				c-0.41,0-0.75-0.45-0.75-1v0C95.65,31.75,95.99,31.3,96.4,31.3L96.4,31.3z M90.96,31.25h2.13c0.41,0,0.75,0.45,0.75,1v0
				c0,0.55-0.34,1-0.75,1h-2.13c-0.41,0-0.75-0.45-0.75-1v0C90.22,31.7,90.55,31.25,90.96,31.25L90.96,31.25z M85.41,31.3h2.13
				c0.41,0,0.75,0.45,0.75,1v0c0,0.55-0.34,1-0.75,1h-2.13c-0.41,0-0.75-0.45-0.75-1v0C84.67,31.75,85,31.3,85.41,31.3z"/>
		</g>
	</g>
	<g>
		<g>
			<path class="st5" d="M24.79,31.25h2.13c0.41,0,0.75,0.45,0.75,1v0c0,0.55-0.34,1-0.75,1h-2.13c-0.41,0-0.75-0.45-0.75-1v0
				C24.05,31.7,24.38,31.25,24.79,31.25L24.79,31.25z M41.21,31.3h2.13c0.41,0,0.75,0.45,0.75,1v0c0,0.55-0.34,1-0.75,1h-2.13
				c-0.41,0-0.75-0.45-0.75-1v0C40.46,31.75,40.8,31.3,41.21,31.3L41.21,31.3z M35.78,31.25h2.13c0.41,0,0.75,0.45,0.75,1v0
				c0,0.55-0.34,1-0.75,1h-2.13c-0.41,0-0.75-0.45-0.75-1v0C35.03,31.7,35.37,31.25,35.78,31.25L35.78,31.25z M30.23,31.3h2.13
				c0.41,0,0.75,0.45,0.75,1v0c0,0.55-0.34,1-0.75,1h-2.13c-0.41,0-0.75-0.45-0.75-1v0C29.48,31.75,29.82,31.3,30.23,31.3z"/>
		</g>
	</g>
	<g>
		<g>
			<g>
				<path class="st2" d="M25.85,25.07L25.85,25.07c0.55,0,1.01,0.15,1.01,0.33V32c0,0.18-0.45,0.33-1.01,0.33l0,0
					c-0.55,0-1.01-0.15-1.01-0.33v-6.6C24.84,25.22,25.3,25.07,25.85,25.07z"/>
			</g>
		</g>
	</g>
	<g>
		<g>
			<g>
				<path class="st2" d="M31.28,25.07L31.28,25.07c0.55,0,1.01,0.15,1.01,0.33V32c0,0.18-0.45,0.33-1.01,0.33l0,0
					c-0.55,0-1.01-0.15-1.01-0.33v-6.6C30.27,25.22,30.73,25.07,31.28,25.07z"/>
			</g>
		</g>
	</g>
	<g>
		<g>
			<g>
				<path class="st2" d="M36.82,25.07L36.82,25.07c0.55,0,1.01,0.15,1.01,0.33V32c0,0.18-0.45,0.33-1.01,0.33l0,0
					c-0.55,0-1.01-0.15-1.01-0.33v-6.6C35.81,25.22,36.26,25.07,36.82,25.07z"/>
			</g>
		</g>
	</g>
	<g>
		<g>
			<g>
				<path class="st2" d="M42.24,25.07L42.24,25.07c0.55,0,1.01,0.15,1.01,0.33V32c0,0.18-0.45,0.33-1.01,0.33l0,0
					c-0.55,0-1.01-0.15-1.01-0.33v-6.6C41.24,25.22,41.69,25.07,42.24,25.07z"/>
			</g>
		</g>
	</g>
	<g>
		<g>
			<path class="st5" d="M46.83,31.25h2.13c0.41,0,0.75,0.45,0.75,1v0c0,0.55-0.34,1-0.75,1h-2.13c-0.41,0-0.75-0.45-0.75-1v0
				C46.08,31.7,46.41,31.25,46.83,31.25L46.83,31.25z M63.24,31.3h2.13c0.41,0,0.75,0.45,0.75,1v0c0,0.55-0.34,1-0.75,1h-2.13
				c-0.41,0-0.75-0.45-0.75-1v0C62.5,31.75,62.83,31.3,63.24,31.3L63.24,31.3z M57.81,31.25h2.13c0.41,0,0.75,0.45,0.75,1v0
				c0,0.55-0.34,1-0.75,1h-2.13c-0.41,0-0.75-0.45-0.75-1v0C57.06,31.7,57.4,31.25,57.81,31.25L57.81,31.25z M52.26,31.3h2.13
				c0.41,0,0.75,0.45,0.75,1v0c0,0.55-0.34,1-0.75,1h-2.13c-0.41,0-0.75-0.45-0.75-1v0C51.51,31.75,51.85,31.3,52.26,31.3z"/>
		</g>
	</g>
	<g>
		<g>
			<g>
				<path class="st2" d="M47.88,25.07L47.88,25.07c0.55,0,1.01,0.15,1.01,0.33V32c0,0.18-0.45,0.33-1.01,0.33l0,0
					c-0.55,0-1.01-0.15-1.01-0.33v-6.6C46.88,25.22,47.33,25.07,47.88,25.07z"/>
			</g>
		</g>
	</g>
	<g>
		<g>
			<g>
				<path class="st2" d="M53.31,25.07L53.31,25.07c0.55,0,1.01,0.15,1.01,0.33V32c0,0.18-0.45,0.33-1.01,0.33l0,0
					c-0.55,0-1.01-0.15-1.01-0.33v-6.6C52.3,25.22,52.76,25.07,53.31,25.07z"/>
			</g>
		</g>
	</g>
	<g>
		<g>
			<g>
				<path class="st2" d="M58.85,25.07L58.85,25.07c0.55,0,1.01,0.15,1.01,0.33V32c0,0.18-0.45,0.33-1.01,0.33l0,0
					c-0.55,0-1.01-0.15-1.01-0.33v-6.6C57.84,25.22,58.29,25.07,58.85,25.07z"/>
			</g>
		</g>
	</g>
	<g>
		<g>
			<g>
				<path class="st2" d="M64.27,25.07L64.27,25.07c0.55,0,1.01,0.15,1.01,0.33V32c0,0.18-0.45,0.33-1.01,0.33l0,0
					c-0.55,0-1.01-0.15-1.01-0.33v-6.6C63.27,25.22,63.72,25.07,64.27,25.07z"/>
			</g>
		</g>
	</g>
	<g>
		<g>
			<path class="st5" d="M68.96,31.25h2.13c0.41,0,0.75,0.45,0.75,1v0c0,0.55-0.34,1-0.75,1h-2.13c-0.41,0-0.75-0.45-0.75-1v0
				C68.22,31.7,68.55,31.25,68.96,31.25L68.96,31.25z M85.38,31.3h2.13c0.41,0,0.75,0.45,0.75,1v0c0,0.55-0.34,1-0.75,1h-2.13
				c-0.41,0-0.75-0.45-0.75-1v0C84.63,31.75,84.97,31.3,85.38,31.3L85.38,31.3z M79.95,31.25h2.13c0.41,0,0.75,0.45,0.75,1v0
				c0,0.55-0.34,1-0.75,1h-2.13c-0.41,0-0.75-0.45-0.75-1v0C79.2,31.7,79.54,31.25,79.95,31.25L79.95,31.25z M74.4,31.3h2.13
				c0.41,0,0.75,0.45,0.75,1v0c0,0.55-0.34,1-0.75,1H74.4c-0.41,0-0.75-0.45-0.75-1v0C73.65,31.75,73.99,31.3,74.4,31.3z"/>
		</g>
	</g>
	<g>
		<g>
			<g>
				<path class="st2" d="M70.02,25.07L70.02,25.07c0.55,0,1.01,0.15,1.01,0.33V32c0,0.18-0.45,0.33-1.01,0.33l0,0
					c-0.55,0-1.01-0.15-1.01-0.33v-6.6C69.01,25.22,69.47,25.07,70.02,25.07z"/>
			</g>
		</g>
	</g>
	<g>
		<g>
			<g>
				<path class="st2" d="M75.45,25.07L75.45,25.07c0.55,0,1.01,0.15,1.01,0.33V32c0,0.18-0.45,0.33-1.01,0.33l0,0
					c-0.55,0-1.01-0.15-1.01-0.33v-6.6C74.44,25.22,74.9,25.07,75.45,25.07z"/>
			</g>
		</g>
	</g>
	<g>
		<g>
			<g>
				<path class="st2" d="M80.98,25.07L80.98,25.07c0.55,0,1.01,0.15,1.01,0.33V32c0,0.18-0.45,0.33-1.01,0.33l0,0
					c-0.55,0-1.01-0.15-1.01-0.33v-6.6C79.98,25.22,80.43,25.07,80.98,25.07z"/>
			</g>
		</g>
	</g>
	<g>
		<g>
			<g>
				<path class="st2" d="M86.41,25.07L86.41,25.07c0.55,0,1.01,0.15,1.01,0.33V32c0,0.18-0.45,0.33-1.01,0.33l0,0
					c-0.55,0-1.01-0.15-1.01-0.33v-6.6C85.41,25.22,85.86,25.07,86.41,25.07z"/>
			</g>
		</g>
	</g>
	<g>
		<g>
			<g>
				<path class="st2" d="M91.94,25.07L91.94,25.07c0.55,0,1.01,0.15,1.01,0.33V32c0,0.18-0.45,0.33-1.01,0.33l0,0
					c-0.55,0-1.01-0.15-1.01-0.33v-6.6C90.93,25.22,91.38,25.07,91.94,25.07z"/>
			</g>
		</g>
	</g>
	<g>
		<g>
			<g>
				<path class="st2" d="M97.36,25.07L97.36,25.07c0.55,0,1.01,0.15,1.01,0.33V32c0,0.18-0.45,0.33-1.01,0.33l0,0
					c-0.55,0-1.01-0.15-1.01-0.33v-6.6C96.36,25.22,96.81,25.07,97.36,25.07z"/>
			</g>
		</g>
	</g>
</g>
<rect x="24.78" y="38.2" class="st4" width="9.82" height="4.53"/>
<rect x="35.42" y="38.2" class="st4" width="9.82" height="4.53"/>
<rect x="46.06" y="38.2" class="st4" width="9.82" height="4.53"/>
<rect x="56.7" y="38.2" class="st4" width="9.82" height="4.53"/>
<rect x="67.34" y="38.2" class="st4" width="9.82" height="4.53"/>
<rect x="77.98" y="38.2" class="st4" width="9.82" height="4.53"/>
<rect x="88.62" y="38.2" class="st4" width="9.82" height="4.53"/>
<path class="st6" d="M86.35,63.97l-11.95,2.9l-2.34-9.67L107,48.73l2.27,9.73l-11.54,3.31l6.97,29.69l-11.04,2.67L86.35,63.97z"/>
<g>
	<path class="st7" d="M52.05,39.73h13.94L88.2,92.27H72.7l-3.8-9.32H48.78l-3.73,9.32h-15.2L52.05,39.73z M64.73,71.7l-5.81-14.83
		L53.02,71.7H64.73z"/>
</g>
<g>
	<path class="st8" d="M52.67,35.79h13.94l22.21,52.55h-15.5l-3.8-9.32H49.39l-3.73,9.32h-15.2L52.67,35.79z M65.34,67.77
		l-5.81-14.83l-5.89,14.83H65.34z"/>
</g>
<g>
	<g>
		<path class="st9" d="M52.67,35.79h13.94l22.21,52.55h-15.5l-3.8-9.32H49.39l-3.73,9.32h-15.2L52.67,35.79z M65.34,67.77
			l-5.81-14.83l-5.89,14.83H65.34z"/>
	</g>
</g>
<path class="st10" d="M95.61,91.59l-7.48-30.95l-12.22,3l-3.4-13.96l39.88-9.64l3.41,13.92l-12.35,2.97l7.51,30.93L95.61,91.59z"/>
<path class="st11" d="M89.65,58.23L77.4,61.2L75,51.29l35.81-8.67l2.4,9.91l-12.25,2.97l7.49,30.91l-11.31,2.74L89.65,58.23z"/>
<g>
	<g>
		<path class="st12" d="M219.66,43.11h6.97v19.86h-6.97V43.11z"/>
		<path class="st12" d="M229.43,43.11h6.97v2.72c1.28-1.65,3.12-3.16,5.91-3.16c2.64,0,4.66,1.17,5.73,3.23
			c1.73-1.98,3.74-3.23,6.64-3.23c4.22,0,6.79,2.64,6.79,7.27v13.03h-6.97V52.18c0-2.17-1.06-3.3-2.72-3.3
			c-1.65,0-2.86,1.14-2.86,3.3v10.79h-6.97V52.18c0-2.17-1.06-3.3-2.72-3.3c-1.65,0-2.83,1.14-2.83,3.3v10.79h-6.97V43.11z"/>
		<path class="st12" d="M263.53,53.13v-0.07c0-5.8,4.15-10.39,10.02-10.39c6.86,0,10.02,5.03,10.02,10.87c0,0.44,0,0.95-0.04,1.43
			h-13.29c0.55,2.17,2.13,3.27,4.29,3.27c1.65,0,2.97-0.62,4.4-2.02l3.85,3.19c-1.91,2.42-4.66,4.04-8.63,4.04
			C267.93,63.45,263.53,59.3,263.53,53.13z M277.03,51.41c-0.26-2.2-1.54-3.6-3.45-3.6c-1.84,0-3.08,1.43-3.45,3.6H277.03z"/>
	</g>
</g>
<g>
	<path class="st12" d="M205.26,40.41h-8.98v-7.27h26.25v7.27h-8.98v22.66h-8.29V40.41z"/>
</g>
<g>
	<path class="st9" d="M135.81,32.97h7.99l12.74,30.14h-8.89l-2.18-5.34h-11.54l-2.14,5.34h-8.72L135.81,32.97z M143.08,51.31
		l-3.33-8.51l-3.38,8.51H143.08z"/>
	<path class="st9" d="M158.26,43.1h7.03v2.81c1.29-1.66,3.14-3.25,5.99-3.25c4.25,0,6.8,2.81,6.8,7.36v13.09h-7.03V52.28
		c0-2.18-1.15-3.37-2.81-3.37c-1.7,0-2.96,1.18-2.96,3.37v10.84h-7.03V43.1z"/>
	<path class="st9" d="M179.89,67.4l2.18-4.92c1.11,0.67,2.29,1.07,3.07,1.07c0.7,0,1.18-0.19,1.63-0.81l-7.84-19.64h7.36l3.99,12.06
		l3.77-12.06h7.21l-7.32,19.53c-1.74,4.66-3.62,6.51-7.62,6.51C183.85,69.14,181.74,68.44,179.89,67.4z"/>
</g>
<g>
	<path class="st12" d="M282.9,33.49c0.53,0,1.04,0.13,1.54,0.4c0.5,0.27,0.89,0.66,1.17,1.16c0.28,0.5,0.42,1.03,0.42,1.57
		c0,0.54-0.14,1.06-0.41,1.56c-0.28,0.5-0.66,0.88-1.16,1.16c-0.5,0.28-1.02,0.41-1.56,0.41c-0.54,0-1.06-0.14-1.56-0.41
		c-0.5-0.28-0.88-0.66-1.16-1.16s-0.41-1.02-0.41-1.56c0-0.54,0.14-1.07,0.42-1.57c0.28-0.5,0.67-0.89,1.17-1.16
		C281.86,33.63,282.38,33.49,282.9,33.49z M282.9,34.01c-0.44,0-0.87,0.11-1.28,0.34c-0.42,0.23-0.74,0.55-0.98,0.97
		c-0.23,0.42-0.35,0.86-0.35,1.31c0,0.45,0.12,0.88,0.35,1.3c0.23,0.41,0.55,0.74,0.97,0.97c0.41,0.23,0.85,0.35,1.3,0.35
		c0.45,0,0.88-0.12,1.3-0.35c0.41-0.23,0.74-0.55,0.97-0.97c0.23-0.41,0.34-0.85,0.34-1.3c0-0.45-0.12-0.89-0.35-1.31
		c-0.23-0.42-0.56-0.74-0.98-0.97C283.77,34.12,283.34,34.01,282.9,34.01z M281.53,38.35v-3.37h1.16c0.4,0,0.68,0.03,0.86,0.09
		s0.32,0.17,0.42,0.33c0.11,0.16,0.16,0.32,0.16,0.49c0,0.25-0.09,0.46-0.26,0.64s-0.41,0.28-0.7,0.31
		c0.12,0.05,0.21,0.11,0.29,0.18c0.14,0.13,0.3,0.36,0.5,0.67l0.41,0.66h-0.66l-0.3-0.53c-0.23-0.42-0.42-0.68-0.57-0.78
		c-0.1-0.08-0.24-0.12-0.44-0.12h-0.32v1.43H281.53z M282.07,36.46h0.66c0.32,0,0.53-0.05,0.65-0.14c0.11-0.09,0.17-0.22,0.17-0.37
		c0-0.1-0.03-0.19-0.08-0.27c-0.06-0.08-0.13-0.14-0.23-0.18c-0.1-0.04-0.28-0.06-0.55-0.06h-0.62V36.46z"/>
</g>
<path class="st13" d="M31.14,42.6c0,0-2.28-0.65-4.17,0.29s-2.54,2.46-2.54,2.46s-0.81,1.73-0.21,3.72c0.6,1.99,1.63,2.73,1.63,2.73
	s1.62-1.64,2.18-1.97s1.05-0.47,1.3-0.27c0.26,0.21,0.32,0.16,0.32,0.43s-0.42,0.5-1.02,1c-0.6,0.5-1.74,1.52-1.74,1.52
	s0.68,0.59,2.11,0.74c1.42,0.15,3.09,0.02,4.36-1.01c1.27-1.03,1.57-2.46,1.25-3.86c-0.32-1.4-1.22-2.27-1.22-2.27
	s-0.91-1.05-2.42-1.27s-2.39,0.2-2.61,0.16c-0.23-0.04-0.36-0.26-0.48-0.48c-0.12-0.23-0.3-0.61,0.16-0.88
	c0.46-0.28,0.35-0.17,1.73-0.31c1.38-0.15,2.75,0.1,3.85,0.63c1.1,0.53,2.19,1.52,2.78,2.87c0.59,1.35,0.71,2.58,0.3,3.95
	c-0.4,1.37-1.66,2.34-1.66,2.34s-1.44,1.29-3.73,1.48c-2.29,0.2-3.94-0.18-5.34-1.1c0,0-1.69,1.7-2.35,4.4
	c-0.67,2.7,0.32,4.69,0.68,5.26c0.36,0.58,1.07,1.73,2.55,2.86c0,0-0.46-1.23-0.36-1.5s0.65-0.56,1.13-0.53s0.48,0.28,0.53,0.47
	c0.05,0.19,0.44,1.92,1.43,3.43l0.17,0.25c0,0,0.27,0.31-0.06,0.59c-0.33,0.28-0.76,0.35-0.93,0.34s-0.41,0.01-0.63-0.44
	c0,0-0.11,0.02-0.27,0.01c-0.16-0.01-1.58-0.14-2.57-0.31c-0.98-0.18-2.02-0.33-2.15-0.48c-0.13-0.15-0.17-0.37,0.16-0.66
	s0.88-0.23,1.19-0.17s1.52,0.28,1.52,0.28s-1.46-1.05-2.56-2.65c-1.1-1.6-1.56-3.34-1.38-5.48c0.19-2.14,1.34-4.47,2.88-6.33
	c0,0-2.33-1.73-2.85-4.87c-0.52-3.14,1.53-5.09,2.06-5.57c0.52-0.47,1.4-1.22,3.13-1.68c1.73-0.46,3.44-0.09,3.44-0.09
	s1.19,0.25,1.85,0.54c0.65,0.29,0.26,0.85,0.26,0.85l-0.31,0.64c0,0-0.14,0.37-0.58,0.24C31.51,42.74,31.14,42.6,31.14,42.6z"/>
<g>
	<g>
		<g>
			<path class="st12" d="M163.96,120.9l-0.91,4.6h-1.52l2.29-11.48h4.14c1.06,0,1.86,0.32,2.41,0.96c0.54,0.64,0.72,1.47,0.52,2.48
				c-0.23,1.11-0.71,1.96-1.45,2.55c-0.74,0.59-1.69,0.89-2.85,0.89H163.96z M164.21,119.68h2.63c0.65,0,1.2-0.21,1.66-0.64
				c0.45-0.43,0.74-0.95,0.87-1.57c0.13-0.67,0.07-1.21-0.19-1.62c-0.26-0.41-0.74-0.61-1.45-0.61h-2.62L164.21,119.68z"/>
			<path class="st12" d="M180.24,120.86c-0.3,1.51-0.91,2.69-1.82,3.53c-0.91,0.85-2.01,1.27-3.32,1.27c-1.18,0-2.12-0.48-2.81-1.45
				c-0.7-0.97-0.91-2.13-0.64-3.5l0.41-2.05c0.3-1.5,0.89-2.68,1.76-3.53c0.88-0.85,1.94-1.28,3.2-1.28c1.22,0,2.19,0.49,2.92,1.46
				c0.73,0.97,0.96,2.14,0.69,3.5L180.24,120.86z M179.13,118.79c0.22-1.1,0.11-1.99-0.34-2.66c-0.44-0.67-1.12-1.01-2.01-1.01
				c-0.76,0-1.43,0.33-2.01,0.98c-0.58,0.65-0.97,1.5-1.18,2.54l-0.42,2.07c-0.23,1.11-0.13,2.01,0.28,2.68
				c0.42,0.67,1.05,1.01,1.9,1.01c0.81,0,1.52-0.32,2.12-0.97c0.61-0.65,1.02-1.5,1.23-2.56L179.13,118.79z"/>
			<path class="st12" d="M184.38,121.52l-0.03,1.32l0.04,0.01l0.49-1.33l3.11-7.51h1.34l0.73,7.51l0.05,1.36l0.05,0.01l0.43-1.37
				l2.74-7.51h1.51l-4.38,11.48h-1.36l-0.79-7.96l-0.03-0.95l-0.04-0.01l-0.32,0.95l-3.37,7.96h-1.36l-0.7-11.48H184L184.38,121.52z
				"/>
			<path class="st12" d="M202.12,120.17h-4.86l-0.82,4.1h5.61l-0.24,1.22h-7.13l2.29-11.48h7.04l-0.24,1.22h-5.52l-0.74,3.71h4.86
				L202.12,120.17z"/>
			<path class="st12" d="M205.99,120.52l-0.99,4.97h-1.53l2.29-11.47h3.9c1.09,0,1.91,0.28,2.45,0.85c0.54,0.57,0.71,1.37,0.5,2.41
				c-0.13,0.64-0.38,1.17-0.75,1.59c-0.37,0.43-0.86,0.76-1.47,1.01c0.51,0.22,0.86,0.55,1.05,1.02c0.18,0.46,0.21,1.02,0.09,1.66
				l-0.21,1.08c-0.08,0.38-0.11,0.7-0.09,0.97c0.02,0.27,0.1,0.5,0.24,0.68l-0.04,0.19h-1.57c-0.16-0.18-0.23-0.44-0.21-0.78
				c0.02-0.34,0.06-0.7,0.14-1.08l0.21-1.05c0.13-0.66,0.07-1.17-0.17-1.53c-0.25-0.36-0.65-0.54-1.2-0.54H205.99z M206.24,119.3
				h2.22c0.74,0,1.33-0.17,1.77-0.52c0.44-0.34,0.73-0.85,0.87-1.51c0.14-0.68,0.07-1.19-0.19-1.53c-0.26-0.34-0.76-0.5-1.49-0.5
				h-2.37L206.24,119.3z"/>
			<path class="st12" d="M220.87,120.17h-4.86l-0.82,4.1h5.61l-0.24,1.22h-7.13l2.29-11.48h7.04l-0.24,1.22h-5.52l-0.74,3.71h4.86
				L220.87,120.17z"/>
			<path class="st12" d="M222.21,125.49l2.29-11.48h3.01c1.33,0,2.4,0.48,3.18,1.45c0.79,0.97,1.04,2.16,0.75,3.58l-0.31,1.56
				c-0.32,1.58-0.94,2.79-1.84,3.63c-0.91,0.84-2.07,1.25-3.49,1.25H222.21z M225.78,115.24l-1.81,9.03h2.07
				c0.9,0,1.66-0.34,2.29-1.01c0.63-0.68,1.06-1.56,1.28-2.65l0.32-1.58c0.23-1.13,0.09-2.04-0.4-2.74
				c-0.49-0.7-1.25-1.05-2.26-1.05H225.78z"/>
			<path class="st12" d="M235.85,125.49l2.29-11.48h3.53c1.05,0,1.85,0.26,2.41,0.79c0.56,0.53,0.74,1.3,0.54,2.32
				c-0.11,0.54-0.35,1.01-0.73,1.4c-0.37,0.39-0.83,0.68-1.37,0.87c0.61,0.15,1.05,0.49,1.31,1.02c0.26,0.53,0.32,1.15,0.18,1.85
				c-0.23,1.12-0.7,1.94-1.43,2.46c-0.73,0.52-1.65,0.78-2.76,0.78H235.85z M238.44,120.12l-0.83,4.15h2.46
				c0.59,0,1.11-0.18,1.56-0.53c0.44-0.35,0.73-0.84,0.86-1.47c0.14-0.71,0.1-1.25-0.11-1.61c-0.21-0.36-0.63-0.54-1.25-0.54H238.44
				z M238.68,118.9h2.33c0.47,0,0.91-0.16,1.32-0.48c0.41-0.32,0.67-0.76,0.78-1.32c0.13-0.66,0.05-1.13-0.23-1.42
				c-0.29-0.29-0.77-0.43-1.45-0.43h-2.01L238.68,118.9z"/>
			<path class="st12" d="M249.55,119.67l0.05,0.01l3.83-5.66h1.73l-5.2,7.43l-0.81,4.04h-1.51l0.83-4.15l-2.2-7.33h1.73
				L249.55,119.67z"/>
		</g>
		<g>
			<path class="st12" d="M145.78,125.53c-0.16,0-0.31-0.05-0.44-0.16c-0.3-0.24-0.35-0.69-0.11-0.99l3.71-4.63l-3.71-4.63
				c-0.24-0.31-0.2-0.75,0.11-0.99c0.3-0.24,0.75-0.2,0.99,0.11l4.06,5.07c0.21,0.26,0.21,0.63,0,0.89l-4.06,5.07
				C146.2,125.44,145.99,125.53,145.78,125.53z"/>
			<path class="st12" d="M149.73,125.53c-0.16,0-0.31-0.05-0.44-0.16c-0.3-0.24-0.35-0.69-0.11-0.99l3.71-4.63l-3.71-4.63
				c-0.24-0.31-0.2-0.75,0.11-0.99c0.3-0.24,0.75-0.2,0.99,0.11l4.06,5.07c0.21,0.26,0.21,0.63,0,0.89l-4.06,5.07
				C150.15,125.44,149.94,125.53,149.73,125.53z"/>
		</g>
	</g>
	<g>
		<path class="st12" d="M276.62,132.8c-0.82,0-1.49-0.67-1.49-1.49c0-0.82,0.67-1.49,1.49-1.49c0,0,0.01,0,0.01,0h0.02
			c0.08,0,0.17,0,0.25,0c5.14,0,9.3-4.06,9.3-9.06c0-5.01-4.16-9.06-9.3-9.06c-5.14,0-9.3,4.06-9.3,9.06c0,1.22,0.25,2.38,0.69,3.44
			l0.01,0.01c0.08,0.18,0.12,0.37,0.12,0.57c0,0.79-0.64,1.43-1.43,1.43c-0.61,0-1.11-0.34-1.31-0.87
			c-0.59-1.41-0.91-2.96-0.91-4.58c0-6.65,5.43-12.04,12.13-12.04c6.7,0,12.13,5.39,12.13,12.04c0,6.65-5.43,12.04-12.13,12.04
			C276.78,132.81,276.74,132.81,276.62,132.8"/>
		<path class="st12" d="M276.56,127.61c-0.02,0-0.03,0-0.05,0c-0.77-0.03-1.39-0.66-1.39-1.44c0-0.8,0.65-1.44,1.44-1.44
			c0.02,0,0.05,0,0.07,0l0.01,0c0.09,0.01,0.17,0.01,0.26,0.01c2.32,0,4.21-1.88,4.21-4.21c0-2.32-1.88-4.21-4.21-4.21
			c-2.32,0-4.21,1.88-4.21,4.21v10.4c0,0.85-0.69,1.53-1.53,1.53c-0.85,0-1.53-0.69-1.53-1.53v-10.4c0-3.91,3.26-7.09,7.27-7.09
			s7.27,3.17,7.27,7.09c0,3.91-3.25,7.09-7.27,7.09c-0.14,0-0.13,0-0.27-0.01L276.56,127.61z"/>
	</g>
</g>
</svg>
