<?xml version="1.0" encoding="utf-8"?>
<!-- Generator: Adobe Illustrator 23.0.6, SVG Export Plug-In . SVG Version: 6.00 Build 0)  -->
<svg version="1.1" id="Layer_1" xmlns="http://www.w3.org/2000/svg" xmlns:xlink="http://www.w3.org/1999/xlink" x="0px" y="0px"
	 viewBox="0 0 360 140.67" style="enable-background:new 0 0 360 140.67;" xml:space="preserve">
<style type="text/css">
	.st0{fill:#6ABF4B;}
	.st1{fill:#0093C9;}
	.st2{fill:#C4C6C7;}
	.st3{fill:#FFFFFF;}
	.st4{fill:#6E7071;}
	.st5{fill:#D1BF9D;}
	.st6{fill:#DDD3B8;}
	.st7{fill:none;}
	.st8{fill:#F78C21;}
	.st9{fill:#C6C7C8;}
	.st10{fill:#919495;}
	.st11{fill:#424242;}
	.st12{fill:#F9C916;}
	.st13{fill:#FFCB05;}
	.st14{fill:#5A5A5D;}
</style>
<g>
	<path d="M126.15,64.83h2.66v25.61h-2.66V64.83z"/>
	<path d="M134.4,76.13c0-1.43,0-2.9-0.15-4.4h2.35v3.34h0.08c0.81-1.69,2.27-3.78,6.36-3.78c4.85,0,6.7,3.08,6.7,7.19v11.96h-2.43
		V79.07c0-3.52-1.31-5.8-4.66-5.8c-4.43,0-5.82,3.71-5.82,6.82v10.35h-2.43V76.13z"/>
	<path d="M154.31,87.72c1.46,0.7,3.24,1.17,5.12,1.17c2.31,0,4.35-1.21,4.35-3.34c0-4.44-9.44-3.74-9.44-9.17
		c0-3.71,3.16-5.1,6.39-5.1c1.04,0,3.12,0.22,4.85,0.84l-0.23,2.02c-1.27-0.55-3-0.88-4.35-0.88c-2.5,0-4.24,0.73-4.24,3.12
		c0,3.48,9.67,3.04,9.67,9.17c0,3.96-3.89,5.32-6.86,5.32c-1.89,0-3.78-0.22-5.51-0.88L154.31,87.72z"/>
	<path d="M185.75,86.04c0,1.43,0,2.9,0.15,4.4h-2.35V87.1h-0.08c-0.81,1.69-2.27,3.78-6.36,3.78c-4.85,0-6.7-3.08-6.7-7.19V71.73
		h2.43V83.1c0,3.52,1.31,5.8,4.66,5.8c4.43,0,5.82-3.71,5.82-6.82V71.73h2.43V86.04z"/>
	<path d="M191.45,75.91c0-2.05,0-2.82-0.15-4.18h2.43v3.6h0.08c0.89-2.09,2.54-4.04,5.05-4.04c0.58,0,1.27,0.11,1.7,0.22v2.42
		c-0.5-0.15-1.16-0.22-1.77-0.22c-3.85,0-4.89,4.11-4.89,7.48v9.25h-2.43V75.91z"/>
	<path d="M215.56,87.43h-0.08c-1.08,2.24-3.81,3.45-6.24,3.45c-5.59,0-6.47-3.6-6.47-5.28c0-6.27,7.01-6.57,12.1-6.57h0.46v-0.95
		c0-3.19-1.19-4.81-4.47-4.81c-2.04,0-3.97,0.44-5.78,1.54v-2.24c1.5-0.7,4.04-1.28,5.78-1.28c4.85,0,6.9,2.09,6.9,6.97v8.25
		c0,1.5,0,2.64,0.19,3.93h-2.39V87.43z M215.33,81.01h-0.69c-4.2,0-9.21,0.4-9.21,4.51c0,2.46,1.85,3.38,4.08,3.38
		c5.7,0,5.82-4.73,5.82-6.75V81.01z"/>
	<path d="M223.15,76.13c0-1.43,0-2.9-0.15-4.4h2.35v3.34h0.08c0.81-1.69,2.27-3.78,6.36-3.78c4.85,0,6.7,3.08,6.7,7.19v11.96h-2.43
		V79.07c0-3.52-1.31-5.8-4.66-5.8c-4.43,0-5.82,3.71-5.82,6.82v10.35h-2.43V76.13z"/>
	<path d="M256.97,74.22c-1.31-0.55-2.89-0.95-4.2-0.95c-4.74,0-7.4,3.26-7.4,7.81c0,4.26,2.7,7.81,7.13,7.81
		c1.54,0,2.97-0.33,4.43-0.84l0.23,2.16c-1.66,0.55-3.2,0.66-5.05,0.66c-6.32,0-9.4-4.59-9.4-9.8c0-5.76,3.89-9.8,9.71-9.8
		c2.35,0,4.05,0.51,4.74,0.73L256.97,74.22z"/>
	<path d="M274.84,89.85c-1.7,0.66-3.89,1.03-5.7,1.03c-6.51,0-8.94-4.18-8.94-9.8c0-5.72,3.31-9.8,8.28-9.8
		c5.55,0,7.82,4.26,7.82,9.28v1.17h-13.44c0,3.96,2.23,7.15,6.47,7.15c1.77,0,4.35-0.7,5.51-1.39V89.85z M273.65,79.76
		c0-3.27-1.39-6.49-5.01-6.49c-3.58,0-5.78,3.41-5.78,6.49H273.65z"/>
</g>
<g>
	<path class="st0" d="M122.81,55.3l4.58-5.47c2.93,2.33,6.19,3.56,9.63,3.56c2.21,0,3.39-0.76,3.39-2.04v-0.08
		c0-1.23-0.98-1.91-5.01-2.84c-6.32-1.44-11.2-3.22-11.2-9.33v-0.08c0-5.52,4.37-9.5,11.5-9.5c5.05,0,9,1.36,12.22,3.95l-4.12,5.81
		c-2.72-1.91-5.69-2.93-8.32-2.93c-1.99,0-2.97,0.85-2.97,1.91v0.08c0,1.36,1.02,1.95,5.13,2.88c6.83,1.49,11.07,3.69,11.07,9.25
		v0.08c0,6.07-4.79,9.67-12.01,9.67C131.47,60.23,126.46,58.57,122.81,55.3z"/>
	<path class="st0" d="M151.06,53.55v-8.07h-2.35v-5.61h2.35v-5.03h6.97v5.03h4.62v5.61h-4.62v6.71c0,1.39,0.62,1.98,1.91,1.98
		c0.92,0,1.8-0.26,2.64-0.66v5.47c-1.25,0.7-2.9,1.14-4.84,1.14C153.55,60.12,151.06,58.29,151.06,53.55z"/>
	<path class="st0" d="M164.41,52.86V39.87h6.97v10.75c0,2.16,1.14,3.34,2.82,3.34c1.65,0,2.9-1.17,2.9-3.34V39.87h6.97v19.85h-6.97
		V57c-1.28,1.65-3.12,3.16-5.94,3.16C166.94,60.16,164.41,57.37,164.41,52.86z"/>
	<path class="st0" d="M185.61,49.88v-0.07c0-6.46,4.04-10.38,8.73-10.38c3.01,0,4.77,1.36,6.09,2.86v-9.36h6.97v26.78h-6.97v-2.64
		c-1.36,1.65-3.08,3.08-6.05,3.08C189.69,60.16,185.61,56.23,185.61,49.88z M200.54,49.81v-0.07c0-2.6-1.8-4.48-4.04-4.48
		c-2.24,0-4.07,1.83-4.07,4.48v0.07c0,2.64,1.83,4.51,4.07,4.51C198.75,54.32,200.54,52.45,200.54,49.81z"/>
	<path class="st0" d="M208.87,49.88v-0.07c0-5.8,4.15-10.38,10.02-10.38c6.86,0,10.02,5.03,10.02,10.86c0,0.44,0,0.95-0.04,1.43
		h-13.28c0.55,2.16,2.13,3.26,4.29,3.26c1.65,0,2.97-0.62,4.4-2.02l3.85,3.19c-1.91,2.42-4.66,4.04-8.62,4.04
		C213.27,60.19,208.87,56.05,208.87,49.88z M222.37,48.16c-0.26-2.2-1.54-3.6-3.45-3.6c-1.83,0-3.08,1.43-3.45,3.6H222.37z"/>
	<path class="st0" d="M230.77,39.87h6.97v2.79c1.28-1.65,3.12-3.23,5.94-3.23c4.22,0,6.75,2.79,6.75,7.3v12.99h-6.97V48.97
		c0-2.16-1.14-3.34-2.79-3.34c-1.69,0-2.94,1.17-2.94,3.34v10.75h-6.97V39.87z"/>
	<path class="st0" d="M254.51,53.55v-8.07h-2.35v-5.61h2.35v-5.03h6.97v5.03h4.62v5.61h-4.62v6.71c0,1.39,0.62,1.98,1.91,1.98
		c0.92,0,1.8-0.26,2.64-0.66v5.47c-1.25,0.7-2.9,1.14-4.84,1.14C257,60.12,254.51,58.29,254.51,53.55z"/>
</g>
<g>
	<path class="st1" d="M287.03,39.87H294v19.85h-6.97V39.87z"/>
	<path class="st1" d="M296.79,39.87h6.97v2.72c1.28-1.65,3.12-3.16,5.91-3.16c2.64,0,4.66,1.17,5.72,3.23
		c1.72-1.98,3.74-3.23,6.64-3.23c4.22,0,6.79,2.64,6.79,7.26v13.02h-6.97V48.93c0-2.16-1.06-3.3-2.72-3.3
		c-1.65,0-2.86,1.14-2.86,3.3v10.79h-6.97V48.93c0-2.16-1.06-3.3-2.72-3.3c-1.65,0-2.82,1.14-2.82,3.3v10.79h-6.97V39.87z"/>
	<path class="st1" d="M330.87,49.88v-0.07c0-5.8,4.15-10.38,10.02-10.38c6.86,0,10.02,5.03,10.02,10.86c0,0.44,0,0.95-0.04,1.43
		h-13.28c0.55,2.16,2.13,3.26,4.29,3.26c1.65,0,2.97-0.62,4.4-2.02l3.85,3.19c-1.91,2.42-4.66,4.04-8.62,4.04
		C335.27,60.19,330.87,56.05,330.87,49.88z M344.37,48.16c-0.26-2.2-1.54-3.6-3.45-3.6c-1.83,0-3.08,1.43-3.45,3.6H344.37z"/>
	<g>
		<path class="st1" d="M272.64,37.16h-8.97V29.9h26.23v7.26h-8.97v22.64h-8.29V37.16z"/>
	</g>
</g>
<g>
	<g>
		<g>
			<path class="st2" d="M63.62,99L99,98.89L98.83,34.7l-86.86,0.29l1.14,64.19l35.38-0.12c0.9,1.09,3.81,1.8,7.09,1.79
				C58.86,100.83,61.76,100.11,63.62,99z"/>
		</g>
		<g>
			<path class="st3" d="M67.23,96.66l35.38-0.12l-0.17-64.45l-86.86,0.29l0.17,64.45l35.38-0.12c1.86,1.09,4.78,1.8,8.05,1.79
				C62.47,98.49,65.37,97.77,67.23,96.66z"/>
			<path class="st4" d="M101.31,33.23l0.17,62.18l-34.25,0.11l-0.31,0l-0.27,0.16c-1.75,1.04-4.54,1.67-7.46,1.68l-0.07,0
				c-2.9,0-5.66-0.61-7.4-1.63l-0.27-0.16l-0.31,0l-34.24,0.11l-0.17-62.18L101.31,33.23 M102.44,32.09l-86.86,0.29l0.17,64.45
				l35.38-0.12c1.85,1.09,4.73,1.79,7.98,1.79c0.02,0,0.05,0,0.07,0c3.28-0.01,6.18-0.73,8.04-1.84l35.38-0.12L102.44,32.09
				L102.44,32.09z"/>
		</g>
		<polygon class="st5" points="99.43,93.15 18.92,93.41 18.75,36.73 99.27,35.57 		"/>
		<g>
			
				<rect x="59" y="34.08" transform="matrix(1 -2.801185e-03 2.801185e-03 1 -0.1748 0.1658)" class="st6" width="0.18" height="56.81"/>
			<g>
				<path class="st4" d="M60.88,90.49c0.26-0.06,0.53-0.13,0.79-0.19c0.16-0.04,0.32-0.07,0.48-0.11c0.24-0.05,0.49-0.11,0.73-0.16
					c0.16-0.04,0.33-0.07,0.49-0.1c0.24-0.05,0.48-0.1,0.71-0.15c0.17-0.03,0.35-0.07,0.52-0.1c0.23-0.04,0.46-0.09,0.69-0.13
					c0.18-0.03,0.36-0.06,0.53-0.09c0.23-0.04,0.45-0.08,0.68-0.12c0.18-0.03,0.36-0.06,0.54-0.08c0.22-0.04,0.45-0.07,0.67-0.1
					c0.18-0.03,0.36-0.05,0.55-0.08c0.22-0.03,0.45-0.06,0.67-0.09c0.18-0.02,0.37-0.05,0.55-0.07c0.22-0.03,0.44-0.06,0.66-0.08
					c0.19-0.02,0.38-0.04,0.57-0.06c0.22-0.02,0.44-0.05,0.66-0.07c0.19-0.02,0.38-0.03,0.57-0.05c0.22-0.02,0.44-0.04,0.65-0.06
					c0.19-0.02,0.38-0.03,0.57-0.04c0.22-0.02,0.44-0.03,0.65-0.05c0.19-0.01,0.39-0.02,0.58-0.03c0.22-0.01,0.43-0.03,0.65-0.04
					c0.19-0.01,0.39-0.02,0.58-0.03c0.21-0.01,0.43-0.02,0.64-0.03c0.19-0.01,0.39-0.01,0.58-0.02c0.21-0.01,0.43-0.01,0.64-0.02
					c0.2,0,0.39,0,0.59-0.01c0.21,0,0.42,0,0.63-0.01c0.21,0,0.42,0,0.63,0c0.19,0,0.39,0,0.58,0c0.21,0,0.42,0.01,0.63,0.01
					c0.19,0,0.39,0.01,0.58,0.01c0.21,0.01,0.42,0.02,0.63,0.02c0.19,0.01,0.38,0.01,0.57,0.02c0.21,0.01,0.43,0.02,0.64,0.03
					c0.19,0.01,0.38,0.02,0.57,0.03c0.21,0.01,0.43,0.03,0.64,0.04c0.19,0.01,0.38,0.03,0.57,0.04c0.22,0.02,0.43,0.04,0.65,0.05
					c0.19,0.02,0.37,0.03,0.56,0.05c0.22,0.02,0.44,0.04,0.65,0.07c0.18,0.02,0.37,0.04,0.55,0.06c0.22,0.02,0.44,0.05,0.66,0.08
					c0.18,0.02,0.37,0.04,0.55,0.07c0.22,0.03,0.44,0.06,0.66,0.09c0.18,0.02,0.36,0.05,0.54,0.07c0.22,0.03,0.45,0.07,0.67,0.1
					c0.18,0.03,0.36,0.05,0.53,0.08c0.22,0.04,0.45,0.07,0.67,0.11c0.18,0.03,0.35,0.06,0.53,0.09c0.23,0.04,0.46,0.08,0.69,0.13
					c0.17,0.03,0.34,0.06,0.51,0.09c0.23,0.04,0.47,0.09,0.7,0.14c0.16,0.03,0.33,0.06,0.49,0.1c0.24,0.05,0.49,0.1,0.73,0.16
					c0.15,0.03,0.3,0.06,0.46,0.1c0.26,0.06,0.53,0.12,0.79,0.18c0.13,0.03,0.27,0.06,0.4,0.09c0.4,0.1,0.79,0.19,1.18,0.29
					c-0.02-5.64-0.03-11.1-0.05-16.48c-0.01-4.31-0.03-8.57-0.04-12.85c0-1.07-0.01-2.14-0.01-3.21
					c-0.02-6.43-0.04-12.94-0.06-19.71c0,0,0,0-0.01,0c-0.36-0.09-0.71-0.19-1.07-0.28c-0.11-0.03-0.22-0.06-0.33-0.09
					c-0.27-0.07-0.55-0.15-0.83-0.22c-0.09-0.02-0.19-0.05-0.28-0.07c-0.37-0.1-0.73-0.2-1.1-0.3c-0.02,0-0.03-0.01-0.05-0.01
					c-0.4-0.11-0.81-0.22-1.21-0.33c-0.21-0.06-0.42-0.11-0.63-0.17c-0.23-0.06-0.45-0.12-0.68-0.18c-0.34-0.09-0.68-0.18-1.02-0.27
					c-0.12-0.03-0.23-0.06-0.35-0.09c-0.25-0.07-0.5-0.13-0.76-0.2c-0.15-0.04-0.29-0.08-0.44-0.12c-0.26-0.07-0.52-0.14-0.78-0.2
					c-0.12-0.03-0.23-0.06-0.35-0.09c-0.35-0.09-0.71-0.18-1.07-0.27c-0.12-0.03-0.25-0.06-0.37-0.09
					c-0.25-0.06-0.51-0.13-0.76-0.19c-0.14-0.03-0.28-0.07-0.42-0.1c-0.29-0.07-0.58-0.14-0.87-0.21c-0.09-0.02-0.17-0.04-0.26-0.06
					c-0.36-0.09-0.72-0.17-1.08-0.25c-0.13-0.03-0.26-0.06-0.39-0.09c-0.26-0.06-0.51-0.12-0.77-0.17c-0.13-0.03-0.26-0.06-0.4-0.09
					c-0.36-0.08-0.71-0.15-1.07-0.22c-0.07-0.01-0.13-0.03-0.2-0.04c-0.32-0.06-0.63-0.13-0.95-0.19c-0.13-0.02-0.26-0.05-0.39-0.07
					c-0.27-0.05-0.53-0.1-0.8-0.14c-0.12-0.02-0.24-0.04-0.36-0.06c-0.37-0.06-0.73-0.12-1.1-0.18c-0.08-0.01-0.17-0.03-0.25-0.04
					c-0.29-0.04-0.59-0.09-0.88-0.13c-0.13-0.02-0.25-0.03-0.38-0.05c-0.28-0.04-0.56-0.07-0.84-0.11c-0.1-0.01-0.2-0.03-0.3-0.04
					c-0.37-0.04-0.73-0.08-1.1-0.12c-0.09-0.01-0.19-0.02-0.28-0.02c-0.28-0.03-0.57-0.05-0.85-0.07c-0.12-0.01-0.24-0.02-0.35-0.02
					c-0.31-0.02-0.61-0.04-0.91-0.05c-0.07,0-0.14-0.01-0.2-0.01c-0.37-0.02-0.73-0.03-1.1-0.03c-0.1,0-0.19,0-0.29,0
					c-0.16,0-0.32-0.01-0.47-0.01c-0.09,0-0.17,0-0.26,0c-0.23,0-0.45,0.01-0.68,0.01c-0.19,0-0.39,0.01-0.58,0.02
					c-0.22,0.01-0.45,0.02-0.67,0.03c-0.19,0.01-0.38,0.02-0.58,0.04c-0.22,0.02-0.44,0.04-0.67,0.06
					c-0.19,0.02-0.38,0.03-0.57,0.06c-0.22,0.02-0.44,0.05-0.67,0.08c-0.19,0.02-0.37,0.05-0.56,0.08
					c-0.23,0.03-0.45,0.07-0.68,0.11c-0.18,0.03-0.36,0.06-0.53,0.09c-0.24,0.05-0.47,0.1-0.7,0.15c-0.16,0.04-0.33,0.07-0.49,0.11
					c-0.26,0.06-0.52,0.13-0.78,0.2c-0.13,0.04-0.27,0.07-0.4,0.11c-0.39,0.11-0.78,0.23-1.17,0.36l0.79,56.66
					c0.4-0.11,0.8-0.21,1.2-0.31C60.61,90.55,60.74,90.52,60.88,90.49z"/>
				<path class="st3" d="M98.19,37.52c-0.79-0.2-1.58-0.38-2.38-0.56c-5.98-2.88-11.29-4.47-16.56-4.97
					c-6.64-0.63-13.15,0.52-19.87,3.52l0-0.05l-0.2-0.05c-15.11-3.89-27.81-4.37-38.81-1.46L20.17,34l0,0.2
					c0,0.94,0.01,1.89,0.01,2.84c-0.08,0.02-0.15,0.04-0.23,0.06c0.05,17.56,0.11,37.1,0.16,54.66c12.82-3.26,26.28-3.31,39.12-0.12
					c12.82-3.26,26.28-3.31,39.12-0.12C98.3,73.96,98.24,55.08,98.19,37.52z"/>
			</g>
		</g>
	</g>
	<g>
		<g>
			<path class="st7" d="M25.96,83.76v2.37c8.74-1.6,18.03-1.69,26.77-0.26v-2.36C43.98,82.11,34.7,82.19,25.96,83.76z"/>
		</g>
		<g>
			<path class="st5" d="M62.79,82.94v2.32c9.11-2.13,21.81-2.23,30.92-0.32v-2.32C84.6,80.76,71.9,80.87,62.79,82.94z"/>
			<path class="st5" d="M62.79,78.16v2.32c9.11-2.13,21.81-2.23,30.92-0.32v-2.32C84.6,75.99,71.9,76.09,62.79,78.16z"/>
			<path class="st5" d="M62.79,73.57v2.32c9.11-2.13,21.81-2.23,30.92-0.32v-2.32C84.6,71.4,71.9,71.5,62.79,73.57z"/>
			<path class="st5" d="M62.79,68.98v2.32c9.11-2.13,21.81-2.23,30.92-0.32v-2.32C84.6,66.81,71.9,66.91,62.79,68.98z"/>
			<path class="st5" d="M63.4,64.39v2.32c9.11-2.13,21.2-2.23,30.31-0.32v-2.32C84.6,62.22,72.51,62.32,63.4,64.39z"/>
		</g>
		<g>
			<path class="st5" d="M62.95,59.13v2.32c9.11-2.13,21.65-2.23,30.75-0.32v-2.32C84.6,56.96,72.06,57.06,62.95,59.13z"/>
			<path class="st5" d="M62.95,54.54v2.32c9.11-2.13,21.65-2.23,30.75-0.32v-2.32C84.6,52.37,72.06,52.47,62.95,54.54z"/>
			<path class="st5" d="M62.95,49.95v2.32c9.11-2.13,21.65-2.23,30.75-0.32v-2.32C84.6,47.78,72.06,47.88,62.95,49.95z"/>
			<path class="st5" d="M62.95,44.97v2.32c9.11-2.13,21.65-2.23,30.75-0.32v-2.32C84.6,42.79,72.06,42.9,62.95,44.97z"/>
		</g>
	</g>
	<polygon class="st8" points="82.89,100.9 78.61,99.6 74.34,100.9 74.34,91.32 82.89,91.32 	"/>
</g>
<polygon class="st9" points="100.08,43.55 77.8,34.56 63.72,34.56 63.08,36.02 73.21,45.12 48.04,51.22 50.37,60.81 62.21,57.94 
	69.46,87.84 80.4,85.19 73.16,55.29 82.12,53.12 84.94,55.65 101.33,53.2 101.47,45.47 "/>
<path class="st9" d="M39.19,51.22c-5.61-1.27-6.78-2.01-6.98-2.33c0,0-0.02-0.06-0.02-0.25v-0.15c0-0.34,0.95-0.82,2.67-0.82
	c4.16,0,8.8,1.65,13.07,4.65l2.05,1.44l10-14.12l-1.84-1.48c-6.24-5.01-13.73-7.44-22.9-7.44c-13.51,0-22.58,7.68-22.58,19.1v0.15
	c0,12.77,10.62,16.26,21.5,18.74c5.76,1.33,6.65,2.16,6.78,2.36c0,0,0.01,0.04,0.01,0.15v0.15c0,0.6-1.44,1.04-3.41,1.04
	c-5.39,0-10.52-1.91-15.25-5.67l-1.92-1.53L9.23,78.51l1.81,1.62c6.65,5.95,15.87,9.23,25.97,9.23c14.26,0,23.47-7.61,23.47-19.4
	v-0.15C60.48,57.54,50.24,53.63,39.19,51.22z"/>
<path class="st3" d="M39.99,47.42c-5.59-1.27-6.76-2-6.96-2.33c0,0-0.02-0.06-0.02-0.25V44.7c0-0.33,0.95-0.82,2.66-0.82
	c4.15,0,8.97,1.85,13.03,4.64c1.08,0.74,2.46,0.82,3.56-0.73c0.32-0.44,8.44-11.91,8.44-11.91l-1.84-1.48
	c-6.22-4.99-13.68-7.42-22.83-7.42c-13.46,0-22.51,7.65-22.51,19.04v0.15c0,12.72,10.59,16.21,21.43,18.68
	c5.74,1.33,6.63,2.15,6.76,2.35c0,0,0.01,0.04,0.01,0.15v0.15c0,0.6-1.43,1.04-3.4,1.04c-5.38,0-11.51-2.32-15.1-5.55
	c-1.38-1.24-2.45-1.21-3.43-0.08c-0.28,0.33-9.68,11.71-9.68,11.71l1.8,1.62c6.63,5.93,15.82,9.2,25.88,9.2
	c14.21,0,23.4-7.59,23.4-19.34v-0.15C61.2,53.72,51,49.82,39.99,47.42z"/>
<path class="st3" d="M71.4,85.32l-7.41-30.69L53.83,57.1c-0.53,0.13-1.08,0.04-1.54-0.24c-0.46-0.28-0.79-0.74-0.92-1.26l-2.38-9.83
	c-0.27-1.09,0.41-2.2,1.5-2.46l35.5-8.6c1.1-0.27,2.2,0.41,2.46,1.5l2.9,11.82l-12.18,2.94l7.45,30.66L71.4,85.32z"/>
<g>
	<path class="st0" d="M13.59,74.37l7.97-9.52c5.09,4.06,10.78,6.2,16.76,6.2c3.84,0,5.91-1.33,5.91-3.54v-0.15
		c0-2.14-1.7-3.32-8.71-4.95c-11-2.51-19.49-5.61-19.49-16.24v-0.15c0-9.6,7.6-16.54,20.01-16.54c8.79,0,15.65,2.36,21.26,6.87
		l-7.16,10.11c-4.72-3.32-9.89-5.09-14.47-5.09c-3.47,0-5.17,1.48-5.17,3.32v0.15c0,2.36,1.77,3.4,8.93,5.02
		c11.89,2.58,19.27,6.42,19.27,16.09v0.15c0,10.56-8.34,16.83-20.89,16.83C28.65,82.94,19.94,80.06,13.59,74.37z"/>
</g>
<path class="st1" d="M65.49,52.25l-12.14,2.94l-2.38-9.83l35.5-8.6l2.38,9.83L76.7,49.53l7.42,30.64l-11.22,2.72L65.49,52.25z"/>
<g>
	<polygon class="st10" points="67.1,22.28 66.73,23.28 74.29,28.31 78.9,31.38 89.46,38.95 102.41,39.89 107.64,40.45 107.82,40.47 
		107.99,40.49 116.94,41.45 117.3,40.45 95.52,22.2 	"/>
	<path class="st7" d="M76.1,37.96c-0.37,1.02,4.06,5.05,10.49,7.38c6.43,2.33,12.28,2.44,12.78,1.05c0.86-2.37-0.84-5.17-9.92-8.46
		C80.63,34.74,76.88,35.82,76.1,37.96z"/>
	<g>
		<polygon class="st11" points="116.94,41.45 102.23,40.39 89.27,39.45 95.15,23.2 		"/>
		<polygon class="st11" points="66.73,23.28 95.15,23.2 89.27,39.45 78.72,31.88 		"/>
	</g>
	<path class="st12" d="M107.74,32.45c0.33,0.3,1.32,1.1,1.43,1.2c0.12,0.11,0.18,0.16,0.18,0.28c0,0.25,0.02,0.41,0.08,0.54
		s0.32,0.14,0.39,0.01s0.09-0.45,0.09-0.45c0-0.3-0.04-0.55-0.29-0.8c-0.2-0.2-1.69-0.72-1.87-0.78
		C107.74,32.45,107.74,32.45,107.74,32.45z"/>
	<g>
		<polygon class="st12" points="109.35,33.93 109.34,48.09 109.91,48.1 109.92,34.04 109.63,33.99 		"/>
	</g>
	<path class="st12" d="M108.56,47.69l0,1.12c0,0.2,0.08,0.37,0.22,0.5c0.14,0.13,0.33,0.21,0.54,0.21l0.59,0
		c0.42,0,0.76-0.32,0.76-0.71l0-1.12c0-0.28-0.17-0.52-0.42-0.63c-0.1-0.05-0.22-0.08-0.35-0.08l-0.59,0
		C108.9,46.98,108.56,47.29,108.56,47.69z"/>
	<path class="st13" d="M108.13,67.77c0,0.08,0.07,0.16,0.16,0.16l2.64,0c0.09,0,0.16-0.07,0.16-0.16c-0.04-0.75-0.23-4-0.28-6.18
		c-0.06-2.48,0.02-7.54-0.03-8.54c-0.05-1-0.26-2.55-0.26-2.55c-0.01-0.17-0.06-0.42-0.18-0.6c-0.09-0.13-0.21-0.22-0.36-0.22
		l-0.7,0c-0.37,0-0.54,0.52-0.55,0.82c0,0-0.21,1.55-0.26,2.55c-0.05,1,0.02,6.09-0.04,8.56C108.36,63.77,108.17,67.02,108.13,67.77
		z"/>
	<rect x="108.96" y="49.36" class="st13" width="1.32" height="0.45"/>
	<g>
		<path class="st14" d="M78.73,32.37c0.87-1.7,1.72-3.24,2.22-4.02c0.81-1.28,8.71,0.88,11.14,1.76l-3.8,10.5c-0.02,0-0.03,0-0.05,0
			c-5.2-4.07-8.88-3.77-11.73-3.57C77.3,35.22,77.72,34.34,78.73,32.37z"/>
		<path class="st4" d="M92.1,30.11c2.42,0.87,9.9,4.28,9.7,5.79c-0.12,0.92-0.46,2.64-0.87,4.51c-0.48,2.16-1.19,4.57-1.64,6.14
			c-0.19-2.22-4.43-5.72-11-5.93c-0.01,0-0.01,0-0.02,0l3.8-10.5C92.09,30.11,92.1,30.11,92.1,30.11z"/>
	</g>
</g>
<g>
	<path class="st1" d="M350.23,30.24c0.53,0,1.04,0.13,1.54,0.4c0.5,0.27,0.89,0.66,1.17,1.16c0.28,0.5,0.42,1.03,0.42,1.57
		c0,0.54-0.14,1.06-0.41,1.56c-0.28,0.5-0.66,0.88-1.16,1.16c-0.5,0.28-1.02,0.41-1.56,0.41c-0.54,0-1.06-0.14-1.56-0.41
		c-0.5-0.28-0.88-0.66-1.16-1.16c-0.28-0.5-0.41-1.02-0.41-1.56c0-0.54,0.14-1.07,0.42-1.57s0.67-0.89,1.17-1.16
		C349.19,30.37,349.71,30.24,350.23,30.24z M350.23,30.76c-0.44,0-0.87,0.11-1.28,0.34c-0.42,0.23-0.74,0.55-0.98,0.97
		c-0.23,0.42-0.35,0.86-0.35,1.31c0,0.45,0.12,0.88,0.35,1.3c0.23,0.41,0.55,0.74,0.97,0.97c0.41,0.23,0.85,0.35,1.3,0.35
		c0.45,0,0.88-0.12,1.3-0.35c0.41-0.23,0.74-0.55,0.97-0.97c0.23-0.41,0.34-0.85,0.34-1.3c0-0.45-0.12-0.89-0.35-1.31
		s-0.56-0.74-0.98-0.97C351.1,30.87,350.67,30.76,350.23,30.76z M348.86,35.1v-3.37h1.16c0.4,0,0.68,0.03,0.86,0.09
		s0.32,0.17,0.42,0.33c0.11,0.16,0.16,0.32,0.16,0.49c0,0.25-0.09,0.46-0.26,0.64c-0.18,0.18-0.41,0.28-0.7,0.31
		c0.12,0.05,0.21,0.11,0.29,0.18c0.14,0.13,0.3,0.36,0.5,0.67l0.41,0.66h-0.66l-0.3-0.53c-0.23-0.42-0.42-0.68-0.57-0.78
		c-0.1-0.08-0.24-0.12-0.44-0.12h-0.32v1.43H348.86z M349.4,33.2h0.66c0.32,0,0.53-0.05,0.65-0.14c0.11-0.09,0.17-0.22,0.17-0.37
		c0-0.1-0.03-0.19-0.08-0.27c-0.06-0.08-0.13-0.14-0.23-0.18c-0.1-0.04-0.28-0.06-0.55-0.06h-0.62V33.2z"/>
</g>
<g>
	<g>
		<g>
			<path class="st1" d="M231.37,112.74l-0.85,4.25h-1.41l2.12-10.62h3.83c0.98,0,1.72,0.3,2.23,0.89c0.5,0.59,0.66,1.36,0.48,2.29
				c-0.21,1.03-0.66,1.81-1.34,2.36c-0.68,0.55-1.56,0.82-2.64,0.82H231.37z M231.6,111.61h2.43c0.6,0,1.11-0.2,1.54-0.59
				c0.42-0.39,0.69-0.88,0.81-1.45c0.12-0.62,0.06-1.12-0.18-1.5c-0.24-0.38-0.69-0.57-1.35-0.57h-2.42L231.6,111.61z"/>
			<path class="st1" d="M246.43,112.71c-0.28,1.4-0.84,2.48-1.68,3.27c-0.84,0.78-1.86,1.17-3.07,1.17c-1.09,0-1.96-0.45-2.6-1.34
				c-0.65-0.89-0.84-1.97-0.59-3.24l0.38-1.9c0.28-1.39,0.82-2.48,1.63-3.27c0.81-0.79,1.8-1.18,2.96-1.18
				c1.13,0,2.03,0.45,2.71,1.35c0.68,0.9,0.89,1.98,0.64,3.24L246.43,112.71z M245.4,110.8c0.2-1.02,0.1-1.84-0.31-2.46
				c-0.41-0.62-1.03-0.93-1.86-0.93c-0.7,0-1.32,0.3-1.86,0.9c-0.54,0.6-0.9,1.39-1.09,2.35l-0.39,1.91
				c-0.21,1.03-0.12,1.86,0.26,2.48c0.38,0.62,0.97,0.93,1.76,0.93c0.75,0,1.4-0.3,1.97-0.9c0.56-0.6,0.94-1.39,1.14-2.37
				L245.4,110.8z"/>
			<path class="st1" d="M250.26,113.32l-0.03,1.23l0.04,0.01l0.45-1.23l2.88-6.94h1.24l0.68,6.94l0.04,1.26l0.04,0.01l0.39-1.27
				l2.54-6.94h1.4l-4.06,10.62h-1.25l-0.73-7.37l-0.03-0.88l-0.04-0.01l-0.3,0.88l-3.12,7.37h-1.25l-0.65-10.62h1.4L250.26,113.32z"
				/>
			<path class="st1" d="M266.68,112.07h-4.49l-0.76,3.79h5.19l-0.23,1.13h-6.59l2.12-10.62h6.51l-0.23,1.13h-5.11l-0.69,3.44h4.49
				L266.68,112.07z"/>
			<path class="st1" d="M270.25,112.39l-0.92,4.6h-1.41l2.12-10.61h3.61c1.01,0,1.77,0.26,2.26,0.79c0.5,0.53,0.65,1.27,0.46,2.23
				c-0.12,0.59-0.35,1.08-0.7,1.47c-0.34,0.39-0.8,0.71-1.36,0.93c0.48,0.2,0.8,0.51,0.97,0.94c0.17,0.43,0.2,0.94,0.08,1.54l-0.2,1
				c-0.07,0.35-0.1,0.65-0.08,0.9c0.02,0.25,0.09,0.46,0.23,0.63l-0.04,0.18h-1.45c-0.15-0.17-0.21-0.41-0.2-0.72
				c0.01-0.32,0.06-0.65,0.13-1l0.2-0.97c0.12-0.61,0.07-1.08-0.16-1.41c-0.23-0.33-0.6-0.5-1.11-0.5H270.25z M270.48,111.26h2.06
				c0.68,0,1.23-0.16,1.64-0.48c0.41-0.32,0.68-0.78,0.81-1.39c0.13-0.63,0.07-1.1-0.18-1.41c-0.24-0.31-0.7-0.47-1.38-0.47h-2.2
				L270.48,111.26z"/>
			<path class="st1" d="M284.02,112.07h-4.49l-0.76,3.79h5.19l-0.23,1.13h-6.59l2.12-10.62h6.51l-0.23,1.13h-5.11l-0.69,3.44h4.49
				L284.02,112.07z"/>
			<path class="st1" d="M285.26,116.99l2.12-10.62h2.79c1.23,0,2.22,0.45,2.94,1.35c0.73,0.9,0.96,2,0.7,3.31l-0.28,1.44
				c-0.3,1.46-0.87,2.58-1.71,3.36c-0.84,0.77-1.92,1.16-3.23,1.16H285.26z M288.57,107.51l-1.67,8.36h1.92
				c0.83,0,1.54-0.31,2.12-0.94c0.58-0.62,0.98-1.44,1.18-2.45l0.29-1.46c0.21-1.04,0.08-1.89-0.37-2.54
				c-0.46-0.65-1.16-0.97-2.09-0.97H288.57z"/>
			<path class="st1" d="M297.88,116.99l2.12-10.62h3.27c0.97,0,1.71,0.24,2.23,0.73c0.52,0.49,0.69,1.2,0.5,2.15
				c-0.1,0.5-0.33,0.93-0.67,1.29c-0.35,0.36-0.77,0.63-1.27,0.8c0.57,0.14,0.97,0.45,1.21,0.94c0.24,0.49,0.3,1.06,0.16,1.71
				c-0.21,1.03-0.65,1.79-1.32,2.27c-0.67,0.48-1.52,0.72-2.55,0.72H297.88z M300.28,112.02l-0.77,3.84h2.28
				c0.55,0,1.03-0.16,1.44-0.49c0.41-0.33,0.68-0.78,0.8-1.36c0.13-0.66,0.09-1.16-0.11-1.49c-0.2-0.33-0.58-0.5-1.16-0.5H300.28z
				 M300.5,110.89h2.15c0.44,0,0.84-0.15,1.22-0.45c0.38-0.3,0.62-0.71,0.72-1.22c0.12-0.61,0.05-1.05-0.22-1.31
				c-0.27-0.27-0.71-0.4-1.34-0.4h-1.86L300.5,110.89z"/>
			<path class="st1" d="M310.55,111.6l0.04,0.01l3.54-5.24h1.6l-4.81,6.88l-0.75,3.74h-1.4l0.77-3.84l-2.03-6.78h1.6L310.55,111.6z"
				/>
		</g>
		<g>
			<path class="st1" d="M214.55,117.03c-0.14,0-0.29-0.05-0.41-0.14c-0.28-0.23-0.33-0.64-0.1-0.92l3.43-4.28l-3.43-4.28
				c-0.23-0.28-0.18-0.69,0.1-0.92c0.28-0.23,0.69-0.18,0.92,0.1l3.76,4.69c0.19,0.24,0.19,0.58,0,0.82l-3.76,4.69
				C214.93,116.94,214.74,117.03,214.55,117.03z"/>
			<path class="st1" d="M218.21,117.03c-0.14,0-0.29-0.05-0.41-0.14c-0.28-0.23-0.33-0.64-0.1-0.92l3.43-4.28l-3.43-4.28
				c-0.23-0.28-0.18-0.69,0.1-0.92c0.28-0.23,0.69-0.18,0.92,0.1l3.76,4.69c0.19,0.24,0.19,0.58,0,0.82l-3.76,4.69
				C218.59,116.94,218.4,117.03,218.21,117.03z"/>
		</g>
	</g>
	<g>
		<path class="st1" d="M335.6,123.76c-0.76,0-1.38-0.62-1.38-1.38c0-0.76,0.62-1.38,1.38-1.38c0,0,0.01,0,0.01,0h0.02
			c0.08,0,0.16,0,0.24,0c4.75,0,8.6-3.75,8.6-8.39c0-4.63-3.85-8.39-8.6-8.39s-8.6,3.75-8.6,8.39c0,1.13,0.23,2.2,0.64,3.18l0,0.01
			c0.07,0.16,0.11,0.34,0.11,0.53c0,0.73-0.59,1.32-1.32,1.32c-0.56,0-1.02-0.31-1.22-0.8c-0.54-1.31-0.84-2.74-0.84-4.24
			c0-6.15,5.02-11.14,11.22-11.14s11.22,4.99,11.22,11.14c0,6.15-5.02,11.14-11.22,11.14C335.75,123.76,335.71,123.76,335.6,123.76"
			/>
		<path class="st1" d="M335.55,118.95c-0.02,0-0.03,0-0.04,0c-0.72-0.02-1.29-0.61-1.29-1.33c0-0.74,0.6-1.34,1.33-1.34
			c0.02,0,0.05,0,0.07,0l0.01,0c0.08,0,0.16,0.01,0.24,0.01c2.15,0,3.89-1.74,3.89-3.89c0-2.15-1.74-3.89-3.89-3.89
			s-3.89,1.74-3.89,3.89v9.62c0,0.78-0.64,1.42-1.42,1.42c-0.78,0-1.42-0.64-1.42-1.42v-9.62c0-3.62,3.01-6.56,6.73-6.56
			s6.73,2.94,6.73,6.56c0,3.62-3.01,6.56-6.73,6.56c-0.13,0-0.12,0-0.25-0.01L335.55,118.95z"/>
	</g>
</g>
</svg>
