<?xml version="1.0" encoding="utf-8"?>
<!-- Generator: Adobe Illustrator 23.0.3, SVG Export Plug-In . SVG Version: 6.00 Build 0)  -->
<svg version="1.1" id="map" xmlns="http://www.w3.org/2000/svg" xmlns:xlink="http://www.w3.org/1999/xlink" x="0px" y="0px"
	 viewBox="0 0 576 253.5" style="enable-background:new 0 0 576 253.5;" xml:space="preserve">
<style type="text/css">
	.st0{fill:#231F20;}
	.st1{fill:#C4C6C7;}
	.st2{fill:#FFFFFF;}
	.st3{fill:#6D6F70;}
	.st4{fill:#E4DCC9;}
	.st5{fill:#D1BF9D;}
	.st6{fill:#FFCC07;}
	.st7{fill:#6EBD44;}
	.st8{fill:#65B345;}
	.st9{fill:#0093C9;}
	.st10{fill:#FF9015;}
</style>
<g>
	<path class="st0" d="M251.15,109.09h5.01v48.3h-5.01V109.09z"/>
	<path class="st0" d="M266.69,130.4c0-2.7,0-5.47-0.29-8.3h4.43v6.3h0.15c1.53-3.18,4.29-7.13,11.99-7.13
		c9.16,0,12.64,5.81,12.64,13.56v22.56h-4.58v-21.45c0-6.64-2.47-10.93-8.79-10.93c-8.36,0-10.97,6.99-10.97,12.87v19.51h-4.58
		V130.4z"/>
	<path class="st0" d="M304.26,152.27c2.76,1.32,6.1,2.21,9.66,2.21c4.36,0,8.21-2.28,8.21-6.3c0-8.37-17.8-7.06-17.8-17.3
		c0-6.99,5.96-9.62,12.06-9.62c1.96,0,5.89,0.42,9.16,1.59l-0.44,3.81c-2.4-1.04-5.67-1.66-8.21-1.66c-4.72,0-7.99,1.38-7.99,5.88
		c0,6.57,18.24,5.74,18.24,17.3c0,7.47-7.34,10.03-12.93,10.03c-3.56,0-7.12-0.42-10.39-1.66L304.26,152.27z"/>
	<path class="st0" d="M363.55,149.09c0,2.7,0,5.47,0.29,8.3h-4.43v-6.3h-0.15c-1.53,3.18-4.29,7.13-11.99,7.13
		c-9.16,0-12.64-5.81-12.64-13.56V122.1h4.58v21.45c0,6.64,2.47,10.93,8.79,10.93c8.36,0,10.97-6.99,10.97-12.87V122.1h4.58V149.09z
		"/>
	<path class="st0" d="M374.3,129.99c0-3.88,0-5.33-0.29-7.89h4.58v6.78h0.15c1.67-3.94,4.8-7.61,9.52-7.61c1.09,0,2.4,0.21,3.2,0.42
		v4.57c-0.94-0.28-2.18-0.42-3.34-0.42c-7.27,0-9.23,7.75-9.23,14.12v17.44h-4.58V129.99z"/>
	<path class="st0" d="M419.78,151.72h-0.15c-2.03,4.22-7.19,6.5-11.77,6.5c-10.54,0-12.21-6.78-12.21-9.96
		c0-11.83,13.22-12.39,22.82-12.39h0.87v-1.8c0-6.02-2.25-9.06-8.43-9.06c-3.85,0-7.48,0.83-10.9,2.91v-4.22
		c2.83-1.31,7.63-2.42,10.9-2.42c9.16,0,13.01,3.94,13.01,13.15v15.57c0,2.84,0,4.98,0.36,7.4h-4.5V151.72z M419.35,139.61h-1.31
		c-7.92,0-17.37,0.76-17.37,8.51c0,4.64,3.49,6.37,7.7,6.37c10.75,0,10.97-8.93,10.97-12.73V139.61z"/>
	<path class="st0" d="M434.09,130.4c0-2.7,0-5.47-0.29-8.3h4.43v6.3h0.15c1.53-3.18,4.29-7.13,11.99-7.13
		c9.16,0,12.64,5.81,12.64,13.56v22.56h-4.58v-21.45c0-6.64-2.47-10.93-8.79-10.93c-8.36,0-10.97,6.99-10.97,12.87v19.51h-4.58
		V130.4z"/>
	<path class="st0" d="M497.89,126.8c-2.47-1.04-5.45-1.8-7.92-1.8c-8.94,0-13.95,6.16-13.95,14.74c0,8.03,5.09,14.74,13.44,14.74
		c2.91,0,5.59-0.62,8.36-1.59l0.44,4.08c-3.12,1.04-6.03,1.25-9.52,1.25c-11.92,0-17.73-8.65-17.73-18.48
		c0-10.86,7.34-18.48,18.31-18.48c4.43,0,7.63,0.97,8.94,1.38L497.89,126.8z"/>
	<path class="st0" d="M531.6,156.28c-3.2,1.25-7.34,1.94-10.75,1.94c-12.28,0-16.86-7.89-16.86-18.48
		c0-10.79,6.25-18.48,15.62-18.48c10.46,0,14.75,8.03,14.75,17.51v2.21H509c0,7.47,4.21,13.49,12.21,13.49
		c3.34,0,8.21-1.31,10.39-2.63V156.28z M529.35,137.25c0-6.16-2.62-12.25-9.45-12.25c-6.76,0-10.9,6.44-10.9,12.25H529.35z"/>
</g>
<g>
	<polygon class="st1" points="156.9,52.94 206.34,159.98 153,159.98 103.27,183.78 42.56,165.46 42.56,54.64 84.51,74.27 
		117.1,52.48 	"/>
</g>
<g>
	<polygon class="st2" points="164.42,50.07 211.41,155.47 152.92,155.47 106.13,177.86 49.35,160.95 49.35,50.13 91.31,69.77 
		124.61,49.61 	"/>
	<path class="st3" d="M124.61,49.61l39.81,0.46l46.99,105.4h-58.49l-46.79,22.39l-56.78-16.91l0-110.82l41.96,19.64L124.61,49.61
		 M47.2,46.75l0,3.38l0,110.82l0,1.6l1.54,0.46l56.78,16.91l0.79,0.24l0.75-0.36l46.35-22.18h58h3.31l-1.35-3.02l-46.99-105.4
		l-0.56-1.26l-1.38-0.02l-39.81-0.46l-0.61-0.01l-0.52,0.32L91.18,67.33L50.26,48.18L47.2,46.75L47.2,46.75z"/>
</g>
<polygon class="st4" points="151.99,149.43 203.35,148.96 160.12,51.85 125.06,51.66 "/>
<polygon class="st4" points="52.86,55.07 53.26,156.05 105.91,171.76 91.51,72.02 "/>
<polygon class="st5" points="125.06,51.66 151.99,149.43 105.91,171.76 91.51,72.02 "/>
<g>
	<polygon class="st6" points="51.5,136.28 51.5,136.28 51.77,135.32 	"/>
	<polygon class="st6" points="87.04,179.24 86.76,180.2 86.76,180.2 	"/>
</g>
<g>
	<path class="st2" d="M157.48,112.08c2.37-5.4,3.19-10.84,3.98-16.19c0.1-0.7,0.21-1.39,0.31-2.09c0.36-2.34,0.88-4.46,1.51-6.36
		l12.32-0.79l-1.48-3.32l-9.47,0.61c1.91-4.1,4.3-6.72,6.34-7.64l-3.12-7c-4.9,2.19-9.12,7.81-11.67,15.18l-4.97,0.32l-5.49-21.52
		l18.69-1.72l-1.46-3.29l-18.08,1.66l-2.09-8.19l-1.76-0.01l2.4,9.4l-14.65,4.88l-10.19,6.98l-3.81-15.12l-1.52,0.92l3.84,15.23
		L94.06,89.83L80.82,87.4l-7.98-23.57l-2.11-0.93l8.17,24.14l-25.94-4.76l0.01,1.73l26.55,4.88l3.35,9.91l-29.85-0.91l0.01,3.41
		l6.99,0.21l1.92,19.37l-8.83,1.31l0.01,3.44l23.43-3.49l2.72,8.5l-16.62,4c-2.6-1.67-5.73-3.08-9.52-4.13l0.04,10.52
		c8.79,3.35,11.1,9.6,13.24,17.4l-3.37,0.54l15.2,4.54c-0.35-1.05-0.69-2.16-1.02-3.36l10.94-1.75l2.86,8.92l3.96,1.18l-3.41-10.64
		l12.09-1.89l4-4.73l9.31,15.14l1.54-0.75l-9.7-15.78l32.65-39.16l8.48-0.67c-1.54,3.14-3.76,6.19-7.15,9.21
		c-12.23,10.87-12.45,27.51-7.52,38.31l1.92-0.96l4.96-2.41c-1.88-4.17-2.76-9.43-2.01-14.67l10.06,10.77l1.6-0.78l-3.74-4
		l2.18-2.73l27.81,0.09l4.64,6.29l2.1-0.02L157.48,112.08z M155.17,87.96c-0.39,1.51-0.72,3.07-0.97,4.67
		c-0.11,0.71-0.22,1.42-0.32,2.13c-0.16,1.06-0.31,2.09-0.48,3.12l-15.36,1.36l-30.35,20.68l-9.33-4.45l-6.8,1.01l-5.07-14.16
		l9.58,0.29l38.9-13.35L155.17,87.96z M104.43,122.14l-5.61,3.82l-16.21,3.9l-2.63-8.21l17.84-2.66L104.43,122.14z M129.56,67.58
		l14.31-4.77l5.64,22.11l-15.22,0.98l-11.44,3.93l-3.79-15.04L129.56,67.58z M81.45,89.25l12.99,2.38l23.12-15.83l3.67,14.57
		l-25.68,8.81L84.7,98.86L81.45,89.25z M63.64,120.64l-1.89-19.07l8.3,0.25l5.46,17.05L63.64,120.64z M78.94,118.36l-5.26-16.43
		l9.15,0.28l5.29,14.79L78.94,118.36z M76.35,156.86c-1.76-6.53-3.98-13.93-10.19-19.54l14.18-3.41l6.8,21.22L76.35,156.86z
		 M101.99,152.75l-11.45,1.83l-6.88-21.47l11.22-2.7l10.92,17.77L101.99,152.75z M139.79,107.43l-32.84,39.38L96.62,130l3.61-0.87
		l39-26.57l13.56-1.2c-0.36,1.75-0.8,3.46-1.37,5.14L139.79,107.43z M149.47,141.07l-2.54,3.18l-6.37-6.82
		c1.03-4.51,3.34-8.9,7.35-12.46c4.11-3.65,6.84-7.38,8.74-11.14l20.18,27.33L149.47,141.07z"/>
</g>
<g>
	<path class="st6" d="M53.19,136.79l0.01,2.64c10.73,3.84,12.83,11.66,15.23,20.62c0.05,0.19,0.1,0.38,0.15,0.57l2.82,0.84
		c-0.19-0.69-0.38-1.37-0.56-2.06C68.41,150.33,65.89,140.97,53.19,136.79z"/>
	<path class="st6" d="M75.18,158.24c-2.57-9.59-5.76-21.49-22.01-26.15l0.01,2.6c14.28,4.4,17.1,14.9,19.59,24.19
		c0.29,1.1,0.59,2.18,0.89,3.25l2.86,0.85C76.05,161.49,75.62,159.9,75.18,158.24z"/>
</g>
<polygon class="st7" points="63.64,120.64 61.76,101.57 70.06,101.82 75.52,118.87 "/>
<polygon class="st7" points="91.59,157.87 103.68,155.98 105.91,171.76 95,168.51 "/>
<polygon class="st8" points="103.68,155.98 107.68,151.25 116.99,166.39 105.91,171.76 "/>
<path class="st9" d="M136.93,156.72c-4.66-10.21-4.42-25.86,7.11-36.11c9.05-8.04,10.31-16.56,11.66-25.58
	c0.11-0.71,0.21-1.41,0.32-2.12c1.99-12.94,8.05-19.91,12.63-21.95l1.62,3.65c-3.95,1.76-8.67,8.28-10.31,18.91
	c-0.11,0.7-0.21,1.4-0.32,2.1c-1.39,9.33-2.82,18.97-12.95,27.97c-10.02,8.9-10.22,22.48-6.15,31.4L136.93,156.72z"/>
<g>
	
		<ellipse transform="matrix(0.0128 -0.9999 0.9999 0.0128 60.2279 291.2034)" class="st1" cx="177.59" cy="115.1" rx="6.53" ry="14.78"/>
</g>
<g>
	<path class="st1" d="M78.67,82.28H50.91V54.2H140v27.52h-28.8v69.75H78.67V82.28z"/>
</g>
<path class="st1" d="M135.35,98.34l-19.71,4.77l-3.87-15.96L169.4,73.2l3.87,15.96l-19.71,4.77l12.05,49.75l-18.21,4.41
	L135.35,98.34z"/>
<path class="st2" d="M222.1,52.74c-2.12-5.73-6.34-10.28-11.88-12.84c-3.02-1.39-6.24-2.1-9.54-2.1c-8.9,0-17.05,5.22-20.77,13.3
	c-4.33,9.42-1.7,20.28,5.74,26.78c-6.23,13.44-13.45,29-14.15,30.52c-0.92,2-0.8,4.16,0.33,5.92c1.2,1.86,3.42,3.07,5.67,3.07
	c2.44,0,4.53-1.37,5.58-3.66c0.79-1.71,7.94-17.14,14.13-30.48c1.13,0.17,2.28,0.27,3.44,0.27c8.9,0,17.05-5.22,20.77-13.3
	C223.98,64.68,224.22,58.47,222.1,52.74z"/>
<g>
	<path class="st3" d="M191.36,79.62c-4.42,9.47-14.08,30.2-14.47,31.13c-0.39,0.92-1.73,0.36-1.34-0.57
		c0.36-0.84,10.12-21.79,14.52-31.23c-0.55-0.32-1.08-0.67-1.6-1.03c-6.34,13.66-13.92,30.01-14.64,31.57
		c-2.06,4.47,4.84,7.65,6.9,3.17c0.81-1.77,8.33-17.97,14.62-31.54c-1.2-0.31-2.38-0.73-3.53-1.26
		C191.67,79.79,191.52,79.7,191.36,79.62z"/>
</g>
<circle class="st10" cx="200.67" cy="60.67" r="18.99"/>
<circle class="st2" cx="197.48" cy="51.24" r="4.78"/>
<polygon class="st2" points="184.64,81.63 179.22,58.76 151.36,65.54 151.36,38.58 53.58,38.58 53.58,74.53 82.01,74.53 
	82.01,143.8 122.93,143.8 122.93,96.77 139.72,92.77 151.58,142.61 177.12,136.47 165.2,86.32 "/>
<g>
	<g>
		<path class="st10" d="M86.32,70.22H57.9V42.89h89.15v27.32h-28.43v69.28H86.32V70.22z"/>
	</g>
</g>
<path class="st9" d="M142.31,88.31l-19.78,4.79l-3.88-16.01l57.83-14.01l3.88,16.01l-19.78,4.79l12.09,49.92l-18.27,4.43
	L142.31,88.31z"/>
<g>
	<g>
		<path class="st10" d="M264.48,57.02h-16.81V43.42h49.14v13.61h-16.81v42.42h-15.53V57.02z"/>
		<path class="st10" d="M289.38,62h13.15v7.54c2.15-5.12,5.61-8.44,11.83-8.17v13.84h-1.11c-6.85,0-10.73,3.94-10.73,12.59v11.63
			h-13.15V62z"/>
		<path class="st10" d="M319.52,62h13.15v37.44h-13.15V62z"/>
		<path class="st10" d="M338.37,62h13.15v4.98c2.56-3.11,5.74-5.81,11.35-5.81c8.93,0,16.61,7.4,16.61,19.37v0.14
			c0,12.18-7.68,19.58-16.54,19.58c-5.67,0-9-2.56-11.42-5.4v15.64h-13.15V62z M366.53,80.76v-0.14c0-4.91-3.39-8.44-7.68-8.44
			c-4.22,0-7.61,3.53-7.61,8.44v0.14c0,4.98,3.39,8.51,7.61,8.51C363.14,89.27,366.53,85.81,366.53,80.76z"/>
	</g>
	<circle class="st10" cx="326.09" cy="47.79" r="8.27"/>
</g>
<g>
	<path class="st9" d="M414.67,62.03h13.14v37.4h-13.14V62.03z"/>
	<path class="st9" d="M433.06,62.03h13.13v5.12c2.42-3.11,5.88-5.95,11.13-5.95c4.98,0,8.78,2.21,10.79,6.08
		c3.25-3.73,7.05-6.08,12.51-6.08c7.95,0,12.79,4.98,12.79,13.69v24.54h-13.13V79.11c0-4.08-2-6.22-5.12-6.22
		c-3.11,0-5.39,2.14-5.39,6.22v20.32h-13.13V79.11c0-4.08-2-6.22-5.12-6.22c-3.11,0-5.32,2.14-5.32,6.22v20.32h-13.13V62.03z"/>
	<path class="st9" d="M497.28,80.91v-0.14c0-10.92,7.81-19.56,18.87-19.56c12.93,0,18.87,9.47,18.87,20.46c0,0.83,0,1.8-0.07,2.7
		h-25.02c1.04,4.08,4.01,6.15,8.09,6.15c3.11,0,5.6-1.17,8.3-3.8l7.26,6.01c-3.59,4.56-8.78,7.6-16.25,7.6
		C505.57,100.33,497.28,92.52,497.28,80.91z M522.72,77.66c-0.48-4.15-2.9-6.77-6.5-6.77c-3.46,0-5.81,2.7-6.5,6.77H522.72z"/>
</g>
<g>
	<path class="st9" d="M387.55,56.94h-16.91V43.25h49.43v13.69h-16.91v42.67h-15.62V56.94z"/>
</g>
<g>
	<path class="st9" d="M533.77,43.94c0.99,0,1.96,0.25,2.9,0.76c0.94,0.51,1.68,1.23,2.2,2.18c0.53,0.95,0.79,1.93,0.79,2.96
		c0,1.02-0.26,1.99-0.78,2.93c-0.52,0.94-1.24,1.66-2.18,2.18c-0.93,0.52-1.91,0.78-2.93,0.78c-1.02,0-2-0.26-2.93-0.78
		c-0.93-0.52-1.66-1.25-2.18-2.18c-0.52-0.94-0.78-1.91-0.78-2.93c0-1.03,0.26-2.01,0.79-2.96s1.26-1.67,2.21-2.18
		C531.81,44.19,532.78,43.94,533.77,43.94z M533.77,44.91c-0.83,0-1.63,0.21-2.42,0.64c-0.78,0.42-1.4,1.03-1.84,1.82
		c-0.44,0.79-0.66,1.61-0.66,2.46c0,0.85,0.22,1.66,0.65,2.44c0.43,0.78,1.04,1.39,1.82,1.82c0.78,0.43,1.6,0.65,2.44,0.65
		c0.85,0,1.66-0.22,2.44-0.65c0.78-0.43,1.39-1.04,1.82-1.82c0.43-0.78,0.65-1.59,0.65-2.44c0-0.85-0.22-1.68-0.66-2.46
		c-0.44-0.79-1.05-1.4-1.84-1.82C535.39,45.12,534.59,44.91,533.77,44.91z M531.18,53.09v-6.34h2.18c0.74,0,1.28,0.06,1.62,0.18
		c0.33,0.12,0.6,0.32,0.8,0.61c0.2,0.29,0.3,0.6,0.3,0.93c0,0.46-0.17,0.87-0.5,1.21c-0.33,0.34-0.77,0.54-1.32,0.58
		c0.22,0.09,0.4,0.21,0.54,0.34c0.25,0.25,0.57,0.67,0.94,1.26l0.77,1.24h-1.25l-0.56-1c-0.44-0.79-0.8-1.28-1.07-1.48
		c-0.19-0.15-0.46-0.22-0.82-0.22h-0.6v2.69H531.18z M532.21,49.52h1.24c0.59,0,1-0.09,1.21-0.27c0.22-0.18,0.32-0.41,0.32-0.7
		c0-0.19-0.05-0.36-0.16-0.5c-0.1-0.15-0.25-0.26-0.43-0.33c-0.18-0.07-0.53-0.11-1.03-0.11h-1.16V49.52z"/>
</g>
<g>
	<g>
		<g>
			<path class="st9" d="M314.85,205.96l-1.64,8.24h-2.73l4.11-20.57h7.42c1.9,0,3.34,0.58,4.32,1.73c0.97,1.15,1.28,2.63,0.93,4.44
				c-0.41,1.99-1.27,3.51-2.59,4.58c-1.32,1.06-3.03,1.59-5.11,1.59H314.85z M315.29,203.77h4.7c1.17,0,2.16-0.38,2.97-1.14
				c0.81-0.76,1.33-1.7,1.56-2.81c0.24-1.21,0.12-2.17-0.35-2.9c-0.47-0.73-1.33-1.09-2.61-1.09h-4.69L315.29,203.77z"/>
			<path class="st9" d="M344.02,205.89c-0.55,2.7-1.63,4.81-3.26,6.33c-1.62,1.52-3.6,2.27-5.94,2.27c-2.11,0-3.79-0.87-5.04-2.6
				c-1.25-1.73-1.63-3.82-1.14-6.27l0.73-3.67c0.54-2.69,1.59-4.8,3.16-6.33c1.57-1.53,3.48-2.29,5.74-2.29
				c2.18,0,3.93,0.87,5.24,2.61c1.31,1.74,1.72,3.83,1.24,6.27L344.02,205.89z M342.03,202.19c0.4-1.98,0.2-3.57-0.6-4.77
				c-0.8-1.2-2-1.8-3.61-1.8c-1.36,0-2.55,0.58-3.6,1.75c-1.04,1.17-1.74,2.68-2.11,4.55l-0.75,3.7c-0.41,2-0.24,3.6,0.51,4.8
				c0.74,1.2,1.88,1.8,3.4,1.8c1.45,0,2.72-0.58,3.81-1.74c1.09-1.16,1.82-2.69,2.21-4.58L342.03,202.19z"/>
			<path class="st9" d="M351.43,207.07l-0.06,2.37l0.07,0.01l0.88-2.39l5.58-13.45h2.4l1.31,13.45l0.08,2.44l0.08,0.01l0.76-2.46
				l4.92-13.45h2.71l-7.85,20.57h-2.43l-1.41-14.27l-0.06-1.7l-0.07-0.01l-0.58,1.71l-6.05,14.27h-2.43l-1.26-20.57h2.71
				L351.43,207.07z"/>
			<path class="st9" d="M383.23,204.66h-8.7l-1.47,7.35h10.04l-0.44,2.19h-12.77l4.11-20.57h12.61l-0.44,2.19h-9.89l-1.33,6.65h8.7
				L383.23,204.66z"/>
			<path class="st9" d="M390.16,205.28l-1.78,8.91h-2.74l4.11-20.55h6.99c1.96,0,3.42,0.51,4.39,1.53c0.96,1.02,1.26,2.46,0.9,4.32
				c-0.24,1.14-0.69,2.09-1.35,2.85c-0.66,0.76-1.54,1.37-2.63,1.81c0.92,0.39,1.55,0.99,1.88,1.82c0.33,0.83,0.38,1.82,0.16,2.98
				l-0.38,1.94c-0.14,0.68-0.19,1.26-0.16,1.74c0.04,0.49,0.18,0.89,0.44,1.22l-0.07,0.34h-2.81c-0.28-0.32-0.41-0.79-0.38-1.4
				c0.03-0.61,0.11-1.26,0.25-1.94l0.38-1.88c0.24-1.18,0.13-2.09-0.31-2.73c-0.44-0.64-1.16-0.97-2.15-0.97H390.16z M390.6,203.09
				h3.98c1.32,0,2.38-0.31,3.17-0.92c0.8-0.62,1.32-1.52,1.56-2.7c0.24-1.22,0.13-2.13-0.34-2.74c-0.47-0.6-1.36-0.9-2.67-0.9h-4.25
				L390.6,203.09z"/>
			<path class="st9" d="M416.81,204.66h-8.7l-1.47,7.35h10.04l-0.44,2.19h-12.77l4.11-20.57h12.61l-0.44,2.19h-9.89l-1.33,6.65h8.7
				L416.81,204.66z"/>
			<path class="st9" d="M419.22,214.19l4.11-20.57h5.4c2.39,0,4.29,0.87,5.7,2.61c1.41,1.74,1.86,3.88,1.35,6.42l-0.55,2.8
				c-0.57,2.83-1.68,5-3.31,6.5c-1.63,1.5-3.72,2.25-6.26,2.25H419.22z M425.62,195.82L422.39,212h3.72c1.61,0,2.98-0.6,4.11-1.81
				c1.13-1.21,1.89-2.79,2.29-4.75l0.57-2.84c0.4-2.02,0.16-3.66-0.72-4.91c-0.89-1.25-2.24-1.88-4.05-1.88H425.62z"/>
			<path class="st9" d="M443.66,214.19l4.11-20.57h6.33c1.87,0,3.31,0.47,4.32,1.41c1.01,0.94,1.33,2.33,0.96,4.16
				c-0.2,0.97-0.63,1.8-1.3,2.5c-0.67,0.7-1.49,1.21-2.46,1.55c1.1,0.26,1.89,0.87,2.35,1.83c0.47,0.96,0.57,2.06,0.32,3.31
				c-0.41,2-1.26,3.47-2.56,4.4c-1.3,0.93-2.95,1.4-4.94,1.4H443.66z M448.3,204.56l-1.48,7.44h4.41c1.06,0,1.99-0.32,2.79-0.95
				c0.8-0.63,1.31-1.51,1.55-2.64c0.24-1.28,0.18-2.24-0.2-2.89s-1.13-0.97-2.24-0.97H448.3z M448.74,202.37h4.17
				c0.85,0,1.64-0.29,2.37-0.87c0.73-0.58,1.19-1.37,1.39-2.37c0.23-1.18,0.1-2.02-0.42-2.54c-0.51-0.52-1.38-0.78-2.59-0.78h-3.6
				L448.74,202.37z"/>
			<path class="st9" d="M468.2,203.75l0.08,0.01l6.87-10.14h3.09l-9.32,13.32l-1.46,7.25h-2.71l1.48-7.43l-3.94-13.14h3.11
				L468.2,203.75z"/>
		</g>
		<g>
			<path class="st9" d="M282.28,214.25c-0.28,0-0.56-0.09-0.79-0.28c-0.55-0.44-0.63-1.24-0.2-1.78l6.64-8.29l-6.64-8.29
				c-0.44-0.55-0.35-1.34,0.2-1.78c0.55-0.44,1.34-0.35,1.78,0.2l7.28,9.08c0.37,0.46,0.37,1.12,0,1.59l-7.28,9.08
				C283.02,214.09,282.65,214.25,282.28,214.25z"/>
			<path class="st9" d="M289.36,214.25c-0.28,0-0.56-0.09-0.79-0.28c-0.55-0.44-0.63-1.24-0.2-1.78l6.64-8.29l-6.64-8.29
				c-0.44-0.55-0.35-1.34,0.2-1.78c0.55-0.44,1.34-0.35,1.78,0.2l7.28,9.08c0.37,0.46,0.37,1.12,0,1.59l-7.28,9.08
				C290.1,214.09,289.73,214.25,289.36,214.25z"/>
		</g>
	</g>
	<g>
		<path class="st9" d="M516.72,227.29c-1.47,0-2.66-1.19-2.66-2.66c0-1.47,1.19-2.66,2.66-2.66c0.01,0,0.01,0,0.02,0h0.03
			c0.15,0,0.3,0.01,0.46,0.01c9.2,0,16.66-7.27,16.66-16.24c0-8.97-7.46-16.24-16.66-16.24c-9.2,0-16.66,7.27-16.66,16.24
			c0,2.18,0.44,4.27,1.24,6.17l0.01,0.01c0.14,0.32,0.22,0.66,0.22,1.03c0,1.41-1.14,2.55-2.55,2.55c-1.08,0-1.98-0.6-2.35-1.56
			c-1.05-2.53-1.63-5.3-1.63-8.21c0-11.91,9.73-21.57,21.74-21.57c12,0,21.74,9.66,21.74,21.57c0,11.91-9.73,21.57-21.74,21.57
			C517,227.3,516.94,227.3,516.72,227.29"/>
		<path class="st9" d="M516.61,217.98c-0.03,0-0.06,0-0.09,0c-1.39-0.05-2.5-1.19-2.5-2.58c0-1.43,1.16-2.59,2.59-2.59
			c0.04,0,0.09,0,0.13,0l0.01,0.01c0.16,0.01,0.31,0.01,0.47,0.01c4.16,0,7.54-3.38,7.54-7.54c0-4.16-3.38-7.54-7.54-7.54
			s-7.54,3.37-7.54,7.54v18.63c0,1.52-1.23,2.75-2.75,2.75c-1.52,0-2.74-1.23-2.74-2.75v-18.63c0-7.01,5.83-12.7,13.03-12.7
			c7.2,0,13.03,5.68,13.03,12.7c0,7.01-5.83,12.7-13.03,12.7c-0.26,0-0.23-0.01-0.48-0.02L516.61,217.98z"/>
	</g>
</g>
</svg>
