<?xml version="1.0" encoding="utf-8"?>
<!-- Generator: Adobe Illustrator 23.0.6, SVG Export Plug-In . SVG Version: 6.00 Build 0)  -->
<svg version="1.1" id="Layer_1" xmlns="http://www.w3.org/2000/svg" xmlns:xlink="http://www.w3.org/1999/xlink" x="0px" y="0px"
	 viewBox="0 0 289.64 67.24" style="enable-background:new 0 0 289.64 67.24;" xml:space="preserve">
<style type="text/css">
	.st0{fill:#009BDF;}
	.st1{fill:#0B3459;}
</style>
<g>
	<path class="st0" d="M84.42,6.07h6.3c6.93,0,10.76,3.72,10.76,9.54c0,5.78-3.87,9.54-10.76,9.54h-2.4v5.97h-3.91V6.07z
		 M90.57,21.73c4.94,0,6.93-2.32,6.93-6.12c0-3.8-2.03-6.12-6.93-6.12h-2.25v12.23H90.57z"/>
	<path class="st0" d="M103.17,23.39c0-4.61,3.68-8.07,8.36-8.07c4.72,0,8.33,3.46,8.33,8.07s-3.61,8.07-8.33,8.07
		C106.86,31.46,103.17,27.99,103.17,23.39z M116.03,23.39c0-2.84-1.73-4.83-4.5-4.83c-2.76,0-4.53,1.99-4.53,4.83
		s1.77,4.86,4.53,4.86C114.3,28.25,116.03,26.23,116.03,23.39z"/>
	<path class="st0" d="M121.48,9.64c0-1.4,1.14-2.43,2.47-2.43c1.33,0,2.47,1.03,2.47,2.43c0,1.47-1.14,2.47-2.47,2.47
		C122.63,12.11,121.48,11.12,121.48,9.64z M122.07,15.65h3.76v15.48h-3.76V15.65z"/>
	<path class="st0" d="M129.33,15.65h3.72l-0.07,2.87c0.96-2.03,2.91-3.21,5.23-3.21c3.43,0,5.79,2.43,5.79,6.63v9.17h-3.72v-8.88
		c0-2.21-1.03-3.5-3.21-3.5c-2.43,0-4.02,1.47-4.02,3.98v8.4h-3.72V15.65z"/>
	<path class="st0" d="M148.48,25.89v-7.11h-2.32v-3.13h2.32V7.58h3.72v8.07h4.13v3.13h-4.13v7.19c0,1.77,0.59,2.28,1.55,2.28
		c0.88,0,1.44-0.41,1.84-0.74l1.77,2.51c-0.77,0.74-1.99,1.47-3.98,1.47C150.47,31.49,148.48,30.02,148.48,25.89z"/>
	<path class="st0" d="M165.14,18.6c0-7.48,5.75-12.82,12.86-12.82c4.5,0,7.81,1.66,10.02,4.97l-2.98,2.14
		c-1.4-2.17-3.76-3.61-7.04-3.61c-5.2,0-8.88,3.98-8.88,9.32s3.68,9.36,8.88,9.36c3.46,0,5.79-1.55,7.41-3.94l2.98,2.1
		c-2.17,3.32-5.71,5.34-10.39,5.34C170.88,31.46,165.14,26.08,165.14,18.6z"/>
	<path class="st0" d="M190.51,23.39c0-4.61,3.68-8.07,8.36-8.07c4.72,0,8.33,3.46,8.33,8.07s-3.61,8.07-8.33,8.07
		C194.19,31.46,190.51,27.99,190.51,23.39z M203.37,23.39c0-2.84-1.73-4.83-4.5-4.83c-2.76,0-4.53,1.99-4.53,4.83
		s1.77,4.86,4.53,4.86C201.64,28.25,203.37,26.23,203.37,23.39z"/>
	<path class="st0" d="M209.78,15.65h3.72l-0.07,2.65c1.03-1.95,2.62-2.98,4.61-2.98c2.25,0,3.72,1.07,4.53,2.95
		c1.22-1.84,3.06-2.95,5.31-2.95c3.65,0,5.82,2.43,5.82,6.37v9.43h-3.72v-9.06c0-2.14-0.77-3.32-2.91-3.32
		c-2.17,0-3.46,1.33-3.46,3.91v8.47h-3.72v-9.06c0-2.14-0.74-3.32-2.87-3.32c-2.21,0-3.5,1.33-3.5,3.91v8.47h-3.72V15.65z"/>
	<path class="st0" d="M238,18.78h-2.54v-3.13H238V9.53c0-3.72,1.81-5.49,4.97-5.49c2.03,0,3.39,0.7,4.38,1.92l-2.21,2.36
		c-0.44-0.52-0.92-0.92-1.81-0.92c-0.96,0-1.62,0.55-1.62,2.1v6.15h4.16v3.13h-4.16v12.34H238V18.78z"/>
	<path class="st0" d="M246.88,23.39c0-4.61,3.68-8.07,8.36-8.07c4.72,0,8.33,3.46,8.33,8.07s-3.61,8.07-8.33,8.07
		C250.57,31.46,246.88,27.99,246.88,23.39z M259.74,23.39c0-2.84-1.73-4.83-4.5-4.83c-2.76,0-4.53,1.99-4.53,4.83
		s1.77,4.86,4.53,4.86C258.01,28.25,259.74,26.23,259.74,23.39z"/>
	<path class="st0" d="M265.79,15.65h3.72l-0.04,2.91c1.03-2.43,2.8-3.21,4.5-3.21c1.11,0,1.88,0.26,2.54,0.66l-1.25,3.35
		c-0.59-0.29-1.18-0.52-2.03-0.52c-2.21,0-3.72,1.29-3.72,4.75v7.52h-3.72V15.65z"/>
	<path class="st0" d="M280.45,25.89v-7.11h-2.32v-3.13h2.32V7.58h3.72v8.07h4.13v3.13h-4.13v7.19c0,1.77,0.59,2.28,1.55,2.28
		c0.88,0,1.44-0.41,1.84-0.74l1.77,2.51c-0.77,0.74-1.99,1.47-3.98,1.47C282.44,31.49,280.45,30.02,280.45,25.89z"/>
</g>
<path class="st1" d="M33.19,66.99c-2.28,0-4.12-1.85-4.12-4.12c0-2.28,1.85-4.12,4.12-4.12c0.01,0,0.02,0,0.03,0l0.05,0
	c0.23,0.01,0.47,0.01,0.71,0.01c14.24,0,25.78-11.25,25.78-25.13S48.22,8.49,33.98,8.49S8.19,19.75,8.19,33.63
	c0,3.38,0.68,6.6,1.92,9.54l0.01,0.02c0.21,0.49,0.33,1.03,0.33,1.59c0,2.18-1.77,3.95-3.95,3.95c-1.68,0-3.07-0.93-3.64-2.41
	c-1.62-3.92-2.52-8.2-2.52-12.7c0-18.43,15.06-33.38,33.63-33.38s33.63,14.94,33.63,33.38S52.55,67,33.98,67
	C33.63,67,33.53,67,33.19,66.99z"/>
<path class="st0" d="M33.03,52.58c-0.04,0-0.09,0-0.13,0c-2.15-0.07-3.87-1.83-3.87-4c0-2.21,1.79-4,4-4c0.07,0,0.14,0,0.2,0.01
	l0.02,0.01c0.24,0.01,0.48,0.02,0.72,0.02c6.44,0,11.67-5.22,11.67-11.67s-5.22-11.67-11.67-11.67s-11.67,5.22-11.67,11.67l0,0
	v28.82c0,2.35-1.9,4.25-4.25,4.25s-4.24-1.9-4.24-4.25V32.95l0,0c0-10.85,9.02-19.65,20.16-19.65s20.16,8.8,20.16,19.65
	S45.11,52.6,33.98,52.6c-0.4,0-0.35-0.01-0.74-0.03L33.03,52.58z"/>
<g>
	<path class="st1" d="M85.45,55.69v-8.14h-2.37V41.9h2.37v-5.07h7.03v5.07h4.66v5.66h-4.66v6.77c0,1.4,0.63,2,1.92,2
		c0.92,0,1.81-0.26,2.66-0.66v5.51c-1.26,0.7-2.92,1.15-4.88,1.15C87.96,62.31,85.45,60.46,85.45,55.69z"/>
	<path class="st1" d="M99.79,41.9h7.03v4.03c1.15-2.74,2.99-4.51,6.32-4.36v7.4h-0.59c-3.66,0-5.73,2.11-5.73,6.73v6.21h-7.03V41.9z
		"/>
	<path class="st1" d="M113.51,56.17V56.1c0-4.14,3.14-6.29,7.84-6.29c1.85,0,3.66,0.37,4.81,0.78v-0.33c0-2.07-1.29-3.25-3.99-3.25
		c-2.11,0-3.74,0.41-5.51,1.11l-1.44-4.96c2.26-0.92,4.66-1.55,8.1-1.55c3.59,0,6.03,0.85,7.62,2.44c1.52,1.48,2.14,3.55,2.14,6.36
		v11.5h-6.95v-2.07c-1.37,1.52-3.25,2.51-5.88,2.51C116.43,62.35,113.51,60.16,113.51,56.17z M126.23,54.65v-0.92
		c-0.7-0.3-1.7-0.52-2.74-0.52c-2.03,0-3.22,1-3.22,2.48v0.07c0,1.37,1.04,2.18,2.48,2.18C124.79,57.94,126.23,56.65,126.23,54.65z"
		/>
	<path class="st1" d="M132.92,41.9h7.4l3.85,11.69l3.85-11.69h7.28l-7.99,20.15h-6.4L132.92,41.9z"/>
	<path class="st1" d="M154.52,51.99v-0.07c0-5.84,4.18-10.46,10.1-10.46c6.92,0,10.1,5.07,10.1,10.95c0,0.44,0,0.96-0.04,1.44
		h-13.39c0.55,2.18,2.14,3.29,4.33,3.29c1.66,0,2.99-0.63,4.44-2.03l3.88,3.22c-1.92,2.44-4.7,4.07-8.69,4.07
		C158.96,62.38,154.52,58.2,154.52,51.99z M168.13,50.25c-0.26-2.22-1.55-3.62-3.48-3.62c-1.85,0-3.11,1.44-3.48,3.62H168.13z"/>
	<path class="st1" d="M176.74,35.8h7.03v26.1h-7.03V35.8z"/>
</g>
</svg>
