<svg id="Layer_1" data-name="Layer 1" xmlns="http://www.w3.org/2000/svg" viewBox="0 0 91.1074 90.4154"><defs><style>.cls-1{fill:#37ade3;}</style></defs><title>PCU_Logo_Blue_Lloyds_noLoyds_CMYK (1)</title><path class="cls-1" d="M44.4906,90.4a5.5818,5.5818,0,1,1,0-11.1635h.107c.3165.0087.6374.0131.9561.0131,19.2885,0,34.925-15.2414,34.925-34.043,0-18.8-15.6365-34.041-34.925-34.041S10.6288,26.4071,10.6288,45.2067A33.1919,33.1919,0,0,0,13.233,58.13l.02.0305A5.3581,5.3581,0,0,1,8.35,65.6718,5.1433,5.1433,0,0,1,3.4163,62.41,44.7337,44.7337,0,0,1,0,45.2067,45.555,45.555,0,1,1,45.5537,90.4154c-.4628,0-.6025-.0022-1.0631-.0153"/><path class="cls-1" d="M44.2715,70.8785c-.0612,0-.12,0-.1812-.0022A5.42,5.42,0,0,1,44.2715,60.04c.0939,0,.1855.0022.2772.0066l.024.0153c.3253.02.6527.0284.9824.0284A15.8013,15.8013,0,1,0,29.7527,44.288v39.04a5.751,5.751,0,1,1-11.5019,0V44.288c0-14.6977,12.2245-26.6123,27.3043-26.6123S72.8571,29.59,72.8571,44.288c0,14.7-12.2223,26.6145-27.302,26.6145-.5436,0-.4738-.0153-1.0086-.0458Z"/></svg>